<?xml version="1.0" encoding="UTF-8"?>
<!DOCTYPE svg PUBLIC "-//W3C//DTD SVG 1.1//EN" "http://www.w3.org/Graphics/SVG/1.1/DTD/svg11.dtd">
<svg xmlns="http://www.w3.org/2000/svg" version="1.1" width="512px" height="512px" style="shape-rendering:geometricPrecision; text-rendering:geometricPrecision; image-rendering:optimizeQuality; fill-rule:evenodd; clip-rule:evenodd" xmlns:xlink="http://www.w3.org/1999/xlink">
<g><path style="opacity:0.989" fill="#bbebfe" d="M 232.5,-0.5 C 247.833,-0.5 263.167,-0.5 278.5,-0.5C 379.371,12.3469 450.871,65.0136 493,157.5C 502.497,181.819 508.663,206.819 511.5,232.5C 511.5,247.833 511.5,263.167 511.5,278.5C 499.099,376.153 448.766,446.653 360.5,490C 334.11,501.263 306.776,508.429 278.5,511.5C 263.167,511.5 247.833,511.5 232.5,511.5C 143.567,501.026 76.4004,457.36 31,380.5C 13.7076,348.465 3.20759,314.465 -0.5,278.5C -0.5,263.167 -0.5,247.833 -0.5,232.5C 12.3465,131.63 65.0132,60.1301 157.5,18C 181.82,8.50296 206.82,2.33629 232.5,-0.5 Z"/></g>
<g><path style="opacity:1" fill="#3abcfe" d="M 287.5,111.5 C 276.964,107.432 266.297,103.766 255.5,100.5C 244.703,103.766 234.036,107.432 223.5,111.5C 224.904,90.6294 228.737,69.9627 235,49.5C 237.898,39.7025 241.898,30.3691 247,21.5C 249.108,18.22 251.941,15.8867 255.5,14.5C 258.743,16.2347 261.577,18.5681 264,21.5C 274.382,42.3965 281.382,64.3965 285,87.5C 286.406,94.6255 287.573,101.792 288.5,109C 288.472,110.07 288.139,110.903 287.5,111.5 Z"/></g>
<g><path style="opacity:1" fill="#39bcfe" d="M 206.5,118.5 C 203.598,119.784 200.598,120.784 197.5,121.5C 176.017,119.451 154.683,116.284 133.5,112C 133.043,111.586 132.709,111.086 132.5,110.5C 146.104,80.752 165.771,55.9186 191.5,36C 203.908,26.9587 217.575,20.9587 232.5,18C 225.374,30.7057 220.207,44.2057 217,58.5C 212.311,78.3003 208.811,98.3003 206.5,118.5 Z"/></g>
<g><path style="opacity:1" fill="#39bcfe" d="M 313.5,121.5 C 310.402,120.784 307.402,119.784 304.5,118.5C 301.559,86.5131 294.392,55.5131 283,25.5C 281.877,22.7513 280.377,20.2513 278.5,18C 289.057,19.8553 299.057,23.522 308.5,29C 339.857,49.1725 363.19,76.3392 378.5,110.5C 375.072,112.225 371.405,113.392 367.5,114C 349.562,117.122 331.562,119.622 313.5,121.5 Z"/></g>
<g><path style="opacity:1" fill="#3abcff" d="M 175.5,27.5 C 176.239,27.369 176.906,27.5357 177.5,28C 151.848,49.7824 131.848,75.9491 117.5,106.5C 115.579,107.641 113.579,107.808 111.5,107C 99.2425,103.803 87.2425,99.8031 75.5,95C 103.359,64.2939 136.692,41.7939 175.5,27.5 Z"/></g>
<g><path style="opacity:1" fill="#2b83bb" d="M 419.5,100.5 C 399.714,75.0355 375.714,54.7022 347.5,39.5C 342.211,35.8533 337.877,31.8533 334.5,27.5C 373.596,41.3707 406.929,63.704 434.5,94.5C 429.829,97.2803 424.829,99.2803 419.5,100.5 Z"/></g>
<g><path style="opacity:1" fill="#39bbfe" d="M 347.5,39.5 C 375.714,54.7022 399.714,75.0355 419.5,100.5C 411.651,103.226 403.651,105.559 395.5,107.5C 390.806,100.937 386.64,93.9366 383,86.5C 372.871,69.539 361.038,53.8724 347.5,39.5 Z"/></g>
<g><path style="opacity:1" fill="#f1db50" d="M 287.5,111.5 C 292.985,114.069 298.651,116.403 304.5,118.5C 307.402,119.784 310.402,120.784 313.5,121.5C 323.655,126.072 333.988,130.405 344.5,134.5C 348.998,135.995 353.332,137.662 357.5,139.5C 356.833,150.167 356.167,160.833 355.5,171.5C 322.654,157.416 289.32,144.416 255.5,132.5C 221.881,144.471 188.548,157.305 155.5,171C 154.836,189.095 154.503,207.261 154.5,225.5C 154.383,246.195 154.883,266.861 156,287.5C 158.53,299.428 163.197,310.428 170,320.5C 192.665,347.26 220.498,366.76 253.5,379C 255.066,379.765 256.399,379.598 257.5,378.5C 290.603,366.703 318.437,347.37 341,320.5C 346.795,312.244 350.961,303.244 353.5,293.5C 352.634,316.285 346.134,337.618 334,357.5C 328.363,366.293 322.196,374.626 315.5,382.5C 312.167,384.833 308.833,387.167 305.5,389.5C 305.167,389.5 304.833,389.5 304.5,389.5C 299.132,392.515 293.798,395.515 288.5,398.5C 277.667,403.389 266.5,407.389 255,410.5C 243.906,407.191 233.073,403.191 222.5,398.5C 217.202,395.515 211.868,392.515 206.5,389.5C 206.167,389.5 205.833,389.5 205.5,389.5C 198.523,384.867 191.523,380.2 184.5,375.5C 165.391,362.223 149.891,345.556 138,325.5C 128.327,305.967 123.827,285.3 124.5,263.5C 124.5,258.5 124.5,253.5 124.5,248.5C 124.333,216.832 124.5,185.165 125,153.5C 126.944,150.266 129.778,148.1 133.5,147C 144.521,142.82 155.521,138.653 166.5,134.5C 176.986,130.344 187.319,126.01 197.5,121.5C 200.598,120.784 203.598,119.784 206.5,118.5C 212.319,116.344 217.985,114.01 223.5,111.5C 234.036,107.432 244.703,103.766 255.5,100.5C 266.297,103.766 276.964,107.432 287.5,111.5 Z"/></g>
<g><path style="opacity:1" fill="#38bcff" d="M 86.5,247.5 C 62.8333,247.5 39.1667,247.5 15.5,247.5C 15.5,243.833 15.5,240.167 15.5,236.5C 19.0436,188.113 35.8769,145.113 66,107.5C 80.4545,113.485 95.2878,118.152 110.5,121.5C 95.1818,162.071 87.1818,204.071 86.5,247.5 Z"/></g>
<g><path style="opacity:1" fill="#2a82ba" d="M 495.5,235.5 C 495.5,239.5 495.5,243.5 495.5,247.5C 488.167,247.5 480.833,247.5 473.5,247.5C 472.219,198.326 457.553,153.659 429.5,113.5C 433.774,111.789 438.107,109.956 442.5,108C 443.944,107.219 445.277,107.386 446.5,108.5C 475.213,145.959 491.546,188.293 495.5,235.5 Z"/></g>
<g><path style="opacity:1" fill="#38bbfe" d="M 429.5,113.5 C 457.553,153.659 472.219,198.326 473.5,247.5C 457.167,247.5 440.833,247.5 424.5,247.5C 423.817,204.066 415.817,162.066 400.5,121.5C 410.266,119.245 419.933,116.579 429.5,113.5 Z"/></g>
<g><path style="opacity:1" fill="#3cbcfe" d="M 166.5,134.5 C 155.521,138.653 144.521,142.82 133.5,147C 129.778,148.1 126.944,150.266 125,153.5C 124.5,185.165 124.333,216.832 124.5,248.5C 116.833,248.5 109.167,248.5 101.5,248.5C 101.569,206.323 109.402,165.657 125,126.5C 125.414,126.043 125.914,125.709 126.5,125.5C 138.472,128.746 150.639,131.079 163,132.5C 164.681,132.608 165.848,133.275 166.5,134.5 Z"/></g>
<g><path style="opacity:1" fill="#3cbcfe" d="M 386.5,248.5 C 386.667,216.832 386.5,185.165 386,153.5C 384.833,151 383,149.167 380.5,148C 372.812,145.153 365.146,142.32 357.5,139.5C 353.332,137.662 348.998,135.995 344.5,134.5C 345.23,132.955 346.563,132.122 348.5,132C 360.475,130.575 372.308,128.409 384,125.5C 384.772,125.645 385.439,125.978 386,126.5C 401.601,165.673 409.435,206.34 409.5,248.5C 401.833,248.5 394.167,248.5 386.5,248.5 Z"/></g>
<g><path style="opacity:1" fill="#fe4a4a" d="M 255.5,132.5 C 255.5,173.833 255.5,215.167 255.5,256.5C 250.87,261.631 246.037,266.631 241,271.5C 227.833,258.333 214.667,245.167 201.5,232C 188.798,226.225 180.798,230.059 177.5,243.5C 177.622,246.698 178.455,249.698 180,252.5C 197.5,270 215,287.5 232.5,305C 241.583,309.253 249.25,307.419 255.5,299.5C 254.842,326.188 255.509,352.521 257.5,378.5C 256.399,379.598 255.066,379.765 253.5,379C 220.498,366.76 192.665,347.26 170,320.5C 163.197,310.428 158.53,299.428 156,287.5C 154.883,266.861 154.383,246.195 154.5,225.5C 154.503,207.261 154.836,189.095 155.5,171C 188.548,157.305 221.881,144.471 255.5,132.5 Z"/></g>
<g><path style="opacity:1" fill="#d6302f" d="M 255.5,132.5 C 289.32,144.416 322.654,157.416 355.5,171.5C 356.659,206.762 356.826,242.095 356,277.5C 355.756,282.951 354.923,288.284 353.5,293.5C 350.961,303.244 346.795,312.244 341,320.5C 318.437,347.37 290.603,366.703 257.5,378.5C 255.509,352.521 254.842,326.188 255.5,299.5C 280.132,274.368 304.965,249.368 330,224.5C 336.521,211.207 332.521,202.873 318,199.5C 315.268,199.615 312.768,200.448 310.5,202C 292.299,220.368 273.965,238.535 255.5,256.5C 255.5,215.167 255.5,173.833 255.5,132.5 Z"/></g>
<g><path style="opacity:1" fill="#d8ad2a" d="M 357.5,139.5 C 365.146,142.32 372.812,145.153 380.5,148C 383,149.167 384.833,151 386,153.5C 386.5,185.165 386.667,216.832 386.5,248.5C 386.5,253.5 386.5,258.5 386.5,263.5C 387.895,302.169 374.229,334.335 345.5,360C 339.652,365.082 333.652,369.915 327.5,374.5C 323.754,377.585 319.754,380.251 315.5,382.5C 322.196,374.626 328.363,366.293 334,357.5C 346.134,337.618 352.634,316.285 353.5,293.5C 354.923,288.284 355.756,282.951 356,277.5C 356.826,242.095 356.659,206.762 355.5,171.5C 356.167,160.833 356.833,150.167 357.5,139.5 Z"/></g>
<g><path style="opacity:1" fill="#f1db4f" d="M 255.5,299.5 C 249.25,307.419 241.583,309.253 232.5,305C 215,287.5 197.5,270 180,252.5C 178.455,249.698 177.622,246.698 177.5,243.5C 180.798,230.059 188.798,226.225 201.5,232C 214.667,245.167 227.833,258.333 241,271.5C 246.037,266.631 250.87,261.631 255.5,256.5C 273.965,238.535 292.299,220.368 310.5,202C 312.768,200.448 315.268,199.615 318,199.5C 332.521,202.873 336.521,211.207 330,224.5C 304.965,249.368 280.132,274.368 255.5,299.5 Z"/></g>
<g><path style="opacity:1" fill="#75d1ff" d="M 15.5,236.5 C 15.5,240.167 15.5,243.833 15.5,247.5C 39.1667,247.5 62.8333,247.5 86.5,247.5C 62.6725,248.498 38.6725,248.831 14.5,248.5C 14.1832,244.298 14.5166,240.298 15.5,236.5 Z"/></g>
<g><path style="opacity:1" fill="#70bde7" d="M 495.5,235.5 C 496.485,239.634 496.818,243.968 496.5,248.5C 472.328,248.831 448.328,248.498 424.5,247.5C 440.833,247.5 457.167,247.5 473.5,247.5C 480.833,247.5 488.167,247.5 495.5,247.5C 495.5,243.5 495.5,239.5 495.5,235.5 Z"/></g>
<g><path style="opacity:1" fill="#7dd5ff" d="M 86.5,263.5 C 62.8333,263.5 39.1667,263.5 15.5,263.5C 15.5,266.833 15.5,270.167 15.5,273.5C 14.5184,270.038 14.185,266.371 14.5,262.5C 38.6725,262.169 62.6725,262.502 86.5,263.5 Z"/></g>
<g><path style="opacity:1" fill="#79c4ea" d="M 424.5,263.5 C 448.328,262.502 472.328,262.169 496.5,262.5C 496.815,266.371 496.482,270.038 495.5,273.5C 495.5,270.167 495.5,266.833 495.5,263.5C 488.167,263.5 480.833,263.5 473.5,263.5C 457.167,263.5 440.833,263.5 424.5,263.5 Z"/></g>
<g><path style="opacity:1" fill="#38bcff" d="M 86.5,263.5 C 87.093,295.059 91.593,326.059 100,356.5C 103.409,367.56 106.909,378.56 110.5,389.5C 95.2721,392.853 80.4388,397.52 66,403.5C 35.7428,365.591 18.9095,322.257 15.5,273.5C 15.5,270.167 15.5,266.833 15.5,263.5C 39.1667,263.5 62.8333,263.5 86.5,263.5 Z"/></g>
<g><path style="opacity:1" fill="#3abcfe" d="M 124.5,263.5 C 123.827,285.3 128.327,305.967 138,325.5C 149.891,345.556 165.391,362.223 184.5,375.5C 165.084,377.611 145.75,380.944 126.5,385.5C 114.644,358.747 107.144,330.747 104,301.5C 102.467,288.875 101.634,276.209 101.5,263.5C 109.167,263.5 116.833,263.5 124.5,263.5 Z"/></g>
<g><path style="opacity:1" fill="#3abcfe" d="M 386.5,263.5 C 394.167,263.5 401.833,263.5 409.5,263.5C 408.72,305.315 400.72,345.648 385.5,384.5C 385,384.833 384.5,385.167 384,385.5C 366.476,381.635 348.809,378.635 331,376.5C 329.319,376.392 328.152,375.725 327.5,374.5C 333.652,369.915 339.652,365.082 345.5,360C 374.229,334.335 387.895,302.169 386.5,263.5 Z"/></g>
<g><path style="opacity:1" fill="#38bcfe" d="M 424.5,263.5 C 440.833,263.5 457.167,263.5 473.5,263.5C 471.815,312.552 457.149,357.219 429.5,397.5C 419.933,394.421 410.266,391.755 400.5,389.5C 415.389,348.835 423.389,306.835 424.5,263.5 Z"/></g>
<g><path style="opacity:1" fill="#2a82ba" d="M 473.5,263.5 C 480.833,263.5 488.167,263.5 495.5,263.5C 495.5,266.833 495.5,270.167 495.5,273.5C 491.949,321.503 475.616,364.503 446.5,402.5C 445.277,403.614 443.944,403.781 442.5,403C 438.107,401.044 433.774,399.211 429.5,397.5C 457.149,357.219 471.815,312.552 473.5,263.5 Z"/></g>
<g><path style="opacity:1" fill="#39bcff" d="M 205.5,389.5 C 205.833,389.5 206.167,389.5 206.5,389.5C 209.403,419.517 215.57,448.85 225,477.5C 227.167,482.5 229.333,487.5 231.5,492.5C 231,492.833 230.5,493.167 230,493.5C 200.702,483.852 176.702,466.852 158,442.5C 147.604,428.936 139.104,414.27 132.5,398.5C 156.675,394.249 181.008,391.249 205.5,389.5 Z"/></g>
<g><path style="opacity:1" fill="#39bcff" d="M 304.5,389.5 C 304.833,389.5 305.167,389.5 305.5,389.5C 326.325,390.711 346.992,393.211 367.5,397C 371.405,397.608 375.072,398.775 378.5,400.5C 363.19,434.661 339.857,461.827 308.5,482C 299.61,486.908 290.277,490.741 280.5,493.5C 292.913,460.146 300.913,425.48 304.5,389.5 Z"/></g>
<g><path style="opacity:1" fill="#39bcfe" d="M 222.5,398.5 C 233.073,403.191 243.906,407.191 255,410.5C 266.5,407.389 277.667,403.389 288.5,398.5C 285.513,422.631 280.346,446.298 273,469.5C 270.005,479.665 264.838,488.499 257.5,496C 255.191,496.756 253.191,496.256 251.5,494.5C 245.445,487.061 240.945,478.727 238,469.5C 230.654,446.298 225.487,422.631 222.5,398.5 Z"/></g>
<g><path style="opacity:1" fill="#3abcff" d="M 111.5,403.5 C 113.792,403.244 115.959,403.577 118,404.5C 131.92,435.184 151.753,461.35 177.5,483C 138.435,469.873 104.935,448.04 77,417.5C 76.3828,416.551 76.5494,415.718 77.5,415C 88.8415,410.831 100.175,406.998 111.5,403.5 Z"/></g>
<g><path style="opacity:1" fill="#39bbfe" d="M 419.5,410.5 C 399.714,435.964 375.714,456.298 347.5,471.5C 366.173,451.335 381.506,428.835 393.5,404C 402.416,405.025 411.082,407.191 419.5,410.5 Z"/></g>
<g><path style="opacity:1" fill="#2b83bb" d="M 419.5,410.5 C 424.829,411.72 429.829,413.72 434.5,416.5C 406.712,447.719 373.045,469.885 333.5,483C 338.04,478.954 342.707,475.121 347.5,471.5C 375.714,456.298 399.714,435.964 419.5,410.5 Z"/></g>
</svg>
