<svg xmlns="http://www.w3.org/2000/svg" xmlns:xlink="http://www.w3.org/1999/xlink" viewBox="0,0,256,256" width="100px" height="100px" fill-rule="nonzero"><g fill="none" fill-rule="nonzero" stroke="none" stroke-width="1" stroke-linecap="butt" stroke-linejoin="miter" stroke-miterlimit="10" stroke-dasharray="" stroke-dashoffset="0" font-family="none" font-weight="none" font-size="none" text-anchor="none" style="mix-blend-mode: normal"><g transform="scale(5.33333,5.33333)"><path d="M38,6h-28c-2.209,0 -4,1.791 -4,4v28c0,2.209 1.791,4 4,4h28c2.209,0 4,-1.791 4,-4v-28c0,-2.209 -1.791,-4 -4,-4z" fill="#ea2764"></path><path d="M42,18v11.5c-1.43,2.67 -4.26,4.5 -7.5,4.5c-3.82,0 -7.05,-2.52 -8.13,-6h-4.74c-1.08,3.48 -4.31,6 -8.13,6c-3.24,0 -6.07,-1.83 -7.5,-4.5v-11.5c0,-2 0.99,-6 3,-6c1,0 1.94,1.44 2.52,2.1c0.03,-0.89 -0.31,-4.1 1.48,-4.1c3,0 5,8 11,8c6,0 8,-8 11,-8c1.79,0 1.45,3.21 1.48,4.1c0.58,-0.66 1.52,-2.1 2.52,-2.1c2.01,0 3,4 3,6z" fill="#aeea00"></path><path d="M34.5,31v0c-3.038,0 -5.5,-2.462 -5.5,-5.5v-3c0,-3.038 2.462,-5.5 5.5,-5.5v0c3.038,0 5.5,2.462 5.5,5.5v3c0,3.038 -2.462,5.5 -5.5,5.5z" fill="#fafafa"></path><path d="M36,22.5v3c0,1.38 -1.12,2.5 -2.5,2.5c-1.38,0 -2.5,-1.12 -2.5,-2.5v-2.59c0.16,0.06 0.32,0.09 0.5,0.09c0.83,0 1.5,-0.67 1.5,-1.5c0,-0.51 -0.25,-0.96 -0.64,-1.22c0.34,-0.18 0.73,-0.28 1.14,-0.28c1.38,0 2.5,1.12 2.5,2.5z" fill="#616161"></path><path d="M13.5,31v0c-3.038,0 -5.5,-2.462 -5.5,-5.5v-3c0,-3.038 2.462,-5.5 5.5,-5.5v0c3.038,0 5.5,2.462 5.5,5.5v3c0,3.038 -2.462,5.5 -5.5,5.5z" fill="#fafafa"></path><path d="M17,22.5v3c0,1.38 -1.12,2.5 -2.5,2.5c-1.38,0 -2.5,-1.12 -2.5,-2.5v-2.59c0.16,0.06 0.32,0.09 0.5,0.09c0.83,0 1.5,-0.67 1.5,-1.5c0,-0.51 -0.25,-0.96 -0.64,-1.22c0.34,-0.18 0.73,-0.28 1.14,-0.28c1.38,0 2.5,1.12 2.5,2.5z" fill="#616161"></path><circle cx="24" cy="30" r="3" fill="#ef6c00"></circle><path d="M24,26c-2.209,0 -4,1.791 -4,4l4,1l4,-1c0,-2.209 -1.791,-4 -4,-4z" fill="#f9a825"></path><path d="M24.5,29h-1c-0.552,0 -1,-0.448 -1,-1v0c0,-0.552 0.448,-1 1,-1h1c0.552,0 1,0.448 1,1v0c0,0.552 -0.448,1 -1,1z" fill="#ffd54f"></path></g></g></svg>