<?xml version="1.0" encoding="UTF-8"?>
<!DOCTYPE svg PUBLIC "-//W3C//DTD SVG 1.1//EN" "http://www.w3.org/Graphics/SVG/1.1/DTD/svg11.dtd">
<svg xmlns="http://www.w3.org/2000/svg" version="1.1" width="625px" height="147px" style="shape-rendering:geometricPrecision; text-rendering:geometricPrecision; image-rendering:optimizeQuality; fill-rule:evenodd; clip-rule:evenodd" xmlns:xlink="http://www.w3.org/1999/xlink">
<g><path style="opacity:1" fill="#fdfdfd" d="M -0.5,-0.5 C 207.833,-0.5 416.167,-0.5 624.5,-0.5C 624.5,48.5 624.5,97.5 624.5,146.5C 416.167,146.5 207.833,146.5 -0.5,146.5C -0.5,97.5 -0.5,48.5 -0.5,-0.5 Z"/></g>
<g><path style="opacity:1" fill="#0b153e" d="M 300.5,20.5 C 300.833,21.5 301.5,22.1667 302.5,22.5C 300.783,42.8252 299.116,63.1585 297.5,83.5C 298.833,83.5 300.167,83.5 301.5,83.5C 302.167,83.5 302.833,83.5 303.5,83.5C 304.5,84.8333 305.5,86.1667 306.5,87.5C 306.5,87.8333 306.5,88.1667 306.5,88.5C 306.637,95.2137 306.137,101.88 305,108.5C 304.167,109.333 303.333,110.167 302.5,111C 292.186,111.95 281.853,112.45 271.5,112.5C 270.833,112.5 270.167,112.5 269.5,112.5C 268.521,110.855 267.188,109.521 265.5,108.5C 261.77,110.576 257.77,111.743 253.5,112C 247.175,112.5 240.842,112.666 234.5,112.5C 231.899,111.199 229.232,109.866 226.5,108.5C 221.179,104.845 216.513,100.512 212.5,95.5C 212.267,93.9382 211.6,92.6049 210.5,91.5C 209.228,88.652 208.395,85.652 208,82.5C 204,91.1667 200,99.8333 196,108.5C 194.833,109.667 193.667,110.833 192.5,112C 185.072,112.698 177.738,112.198 170.5,110.5C 169.833,110.167 169.167,109.833 168.5,109.5C 168.167,108.5 167.5,107.833 166.5,107.5C 165.482,103.917 164.649,100.25 164,96.5C 162.287,101.396 160.954,106.396 160,111.5C 159.167,112.333 158.333,113.167 157.5,114C 141.11,114.883 125.776,111.383 111.5,103.5C 101.902,96.9789 98.7353,87.9789 102,76.5C 103.686,73.117 105.853,70.117 108.5,67.5C 109.167,67.1667 109.833,66.8333 110.5,66.5C 112.01,65.1639 113.677,63.9973 115.5,63C 106.077,61.6473 97.577,63.814 90,69.5C 90.3801,82.822 90.3801,96.1554 90,109.5C 89.1667,110.333 88.3333,111.167 87.5,112C 82.1771,112.499 76.8437,112.666 71.5,112.5C 69.1417,112.747 67.1417,112.081 65.5,110.5C 64.2471,107.093 63.5804,103.427 63.5,99.5C 62.7334,85.168 62.0667,70.8347 61.5,56.5C 61.7678,54.901 61.4345,53.5676 60.5,52.5C 60.5,51.5 60.5,50.5 60.5,49.5C 57.5,49.5 54.5,49.5 51.5,49.5C 51.6666,69.1695 51.5,88.8362 51,108.5C 50.1667,109.333 49.3333,110.167 48.5,111C 42.8431,111.499 37.1764,111.666 31.5,111.5C 30.8333,111.5 30.1667,111.5 29.5,111.5C 28.1667,110.5 26.8333,109.5 25.5,108.5C 25.5,88.1667 25.5,67.8333 25.5,47.5C 20.4635,47.5874 15.4635,47.254 10.5,46.5C 10.1667,46.5 9.83333,46.5 9.5,46.5C 9.31465,44.8042 8.48131,43.4709 7,42.5C 6.50031,34.8406 6.33365,27.1739 6.5,19.5C 6.9528,18.5416 7.61947,17.7083 8.5,17C 30.5446,17.3533 52.5446,18.6867 74.5,21C 75.7101,22.0391 76.7101,23.2058 77.5,24.5C 77.5,27.8333 77.5,31.1667 77.5,34.5C 79.1667,34.5 80.8333,34.5 82.5,34.5C 84.973,34.7991 87.1397,35.7991 89,37.5C 93.0202,35.6597 97.1869,34.3264 101.5,33.5C 107.315,32.456 112.315,33.7893 116.5,37.5C 116.367,42.2717 117.7,42.4384 120.5,38C 122.717,36.7246 125.051,35.7246 127.5,35C 133.833,34.3333 140.167,34.3333 146.5,35C 149,35.3747 151.333,36.2081 153.5,37.5C 155.937,35.032 158.937,34.032 162.5,34.5C 167.511,34.8901 172.511,35.3901 177.5,36C 179.97,36.9888 182.303,38.1554 184.5,39.5C 184.605,44.6983 185.438,49.6983 187,54.5C 188.273,51.5107 189.439,48.5107 190.5,45.5C 192.696,37.894 197.696,35.394 205.5,38C 210.74,38.4395 215.74,39.6062 220.5,41.5C 240.475,31.3833 256.975,35.3833 270,53.5C 271.248,49.6113 272.081,45.6113 272.5,41.5C 271.745,39.0124 270.245,37.0124 268,35.5C 267.333,29.1667 267.333,22.8333 268,16.5C 268.833,15.6667 269.667,14.8333 270.5,14C 273.833,13.3333 277.167,13.3333 280.5,14C 287.19,16.1709 293.857,18.3376 300.5,20.5 Z"/></g>
<g><path style="opacity:1" fill="#3c3f62" d="M 391.5,16.5 C 395.646,15.353 399.98,15.1864 404.5,16C 406.141,17.129 407.141,18.629 407.5,20.5C 407.5,25.8333 407.5,31.1667 407.5,36.5C 409.167,36.5 410.833,36.5 412.5,36.5C 410.735,37.4614 408.735,37.7947 406.5,37.5C 406.666,31.4908 406.499,25.4908 406,19.5C 405.167,18.6667 404.333,17.8333 403.5,17C 399.514,16.5012 395.514,16.3345 391.5,16.5 Z"/></g>
<g><path style="opacity:1" fill="#0b153f" d="M 440.5,17.5 C 440.5,23.1667 440.5,28.8333 440.5,34.5C 442.167,34.5 443.833,34.5 445.5,34.5C 451.468,33.2973 455.301,35.6306 457,41.5C 460.137,39.0144 463.637,37.1811 467.5,36C 477.615,34.4286 487.282,35.7619 496.5,40C 498.907,42.1831 501.24,44.3497 503.5,46.5C 503.783,47.2891 504.283,47.9558 505,48.5C 505.497,45.854 505.664,43.1873 505.5,40.5C 507.478,37.9877 510.145,36.4877 513.5,36C 518.787,34.7375 524.12,34.4042 529.5,35C 530.399,36.2362 531.566,37.0696 533,37.5C 537.02,35.6597 541.187,34.3264 545.5,33.5C 553.297,34.021 560.963,35.021 568.5,36.5C 572.113,37.4861 575.779,38.3195 579.5,39C 581.141,40.129 582.141,41.629 582.5,43.5C 582.664,46.1873 582.497,48.854 582,51.5C 577.907,61.1818 576.073,71.1818 576.5,81.5C 582.319,70.2257 585.653,58.2257 586.5,45.5C 589.84,40.7629 594.506,38.5963 600.5,39C 606.307,37.4612 611.307,38.6279 615.5,42.5C 615.5,43.5 615.5,44.5 615.5,45.5C 617.373,65.5955 616.54,85.5955 613,105.5C 611.138,119.496 604.305,130.162 592.5,137.5C 585.202,138.559 577.869,138.726 570.5,138C 568.807,137.153 567.14,136.32 565.5,135.5C 555.755,128.617 551.255,119.283 552,107.5C 553.873,105.291 556.04,103.458 558.5,102C 555.769,99.3741 553.936,96.2074 553,92.5C 551.105,87.6751 550.272,82.6751 550.5,77.5C 550.5,74.1667 550.5,70.8333 550.5,67.5C 550.785,65.712 550.452,64.0453 549.5,62.5C 543.763,63.6192 538.597,65.9525 534,69.5C 534.38,82.822 534.38,96.1554 534,109.5C 533.167,110.333 532.333,111.167 531.5,112C 526.177,112.499 520.844,112.666 515.5,112.5C 514.833,112.5 514.167,112.5 513.5,112.5C 511.938,112.267 510.605,111.6 509.5,110.5C 509.5,109.833 509.167,109.5 508.5,109.5C 508.752,106.68 508.252,104.014 507,101.5C 497.019,113.053 484.519,116.887 469.5,113C 467.14,111.82 464.807,110.653 462.5,109.5C 455.534,104.584 450.201,98.2508 446.5,90.5C 445.833,88.5 445.167,86.5 444.5,84.5C 443.68,78.2026 443.347,71.8692 443.5,65.5C 443.5,64.5 443.5,63.5 443.5,62.5C 442.167,62.5 440.833,62.5 439.5,62.5C 439.049,77.5062 438.382,92.5062 437.5,107.5C 431.795,111.182 425.461,112.848 418.5,112.5C 417.833,112.5 417.167,112.5 416.5,112.5C 411.396,111.709 409.396,108.709 410.5,103.5C 410.663,101.143 410.497,98.8098 410,96.5C 404.671,102.25 398.171,106.084 390.5,108C 377.094,111.756 363.428,113.59 349.5,113.5C 346.61,112.101 345.11,109.768 345,106.5C 343.935,100.189 343.602,93.856 344,87.5C 344.833,86.6667 345.667,85.8333 346.5,85C 354.867,84.7412 363.2,84.2412 371.5,83.5C 375.313,82.8404 378.979,81.6738 382.5,80C 373.519,78.9222 364.519,77.9222 355.5,77C 353.807,76.1534 352.14,75.3201 350.5,74.5C 344.675,71.5049 340.842,66.8382 339,60.5C 335.616,47.799 338.783,37.299 348.5,29C 361.583,20.6446 375.917,16.478 391.5,16.5C 395.514,16.3345 399.514,16.5012 403.5,17C 404.333,17.8333 405.167,18.6667 406,19.5C 406.499,25.4908 406.666,31.4908 406.5,37.5C 408.735,37.7947 410.735,37.4614 412.5,36.5C 412.5,32.8333 412.5,29.1667 412.5,25.5C 411.875,22.0295 412.875,19.1962 415.5,17C 422.729,15.0163 430.062,14.3496 437.5,15C 438.373,16.045 439.373,16.8783 440.5,17.5 Z"/></g>
<g><path style="opacity:1" fill="#1698c8" d="M 28.5,106.5 C 29.1551,85.473 28.4885,64.8063 26.5,44.5C 21.1556,44.1841 15.8222,43.6841 10.5,43C 10,42.5 9.5,42 9,41.5C 8.33333,34.8333 8.33333,28.1667 9,21.5C 9.5,21 10,20.5 10.5,20C 31.1927,20.6239 51.8593,21.9572 72.5,24C 73.9797,25.2991 74.6464,26.9658 74.5,29C 73.8926,32.1429 73.5592,35.3095 73.5,38.5C 76.8175,37.7791 80.1508,37.6124 83.5,38C 84.8659,39.5998 85.8659,41.4332 86.5,43.5C 94.0523,38.2591 102.386,35.7591 111.5,36C 112,36.5 112.5,37 113,37.5C 113.333,41.8333 113.667,46.1667 114,50.5C 123.588,37.2222 136.088,33.7222 151.5,40C 153,41.5 154.5,43 156,44.5C 156.093,41.9925 156.926,39.8259 158.5,38C 165.192,37.5472 171.859,37.8806 178.5,39C 180.357,40.1824 181.357,41.849 181.5,44C 182.634,53.1705 183.8,62.3372 185,71.5C 187.966,62.2694 191.132,53.1028 194.5,44C 195.272,42.779 196.272,41.779 197.5,41C 204.257,40.8521 210.924,41.6854 217.5,43.5C 218.145,44.646 218.978,45.646 220,46.5C 228.004,39.8693 237.171,37.7026 247.5,40C 261.907,45.3963 269.574,55.5629 270.5,70.5C 261.341,77.2464 252.008,83.7464 242.5,90C 250.539,91.3312 257.206,88.6645 262.5,82C 265.956,80.877 268.79,81.7104 271,84.5C 273.058,68.5284 274.392,52.5284 275,36.5C 273.667,35.8333 272.333,35.1667 271,34.5C 270.333,29.1667 270.333,23.8333 271,18.5C 273.153,16.5561 275.653,16.0561 278.5,17C 285.597,18.9753 292.43,21.4753 299,24.5C 297.665,45.5205 295.832,66.5205 293.5,87.5C 295.342,87.2767 297.175,86.9434 299,86.5C 300.711,86.4393 302.044,87.1059 303,88.5C 303.573,94.5391 303.239,100.539 302,106.5C 301.5,107 301,107.5 300.5,108C 290.851,109.124 281.185,109.457 271.5,109C 270.072,107.084 269.072,104.917 268.5,102.5C 258.774,108.812 248.108,110.979 236.5,109C 218.513,102.007 209.68,88.8404 210,69.5C 204.412,83.1755 197.912,96.3422 190.5,109C 183.084,109.986 176.084,108.82 169.5,105.5C 167.227,94.8643 165.06,84.1976 163,73.5C 162.296,85.7235 160.296,97.7235 157,109.5C 156.5,110 156,110.5 155.5,111C 140.163,111.249 125.83,107.582 112.5,100C 104.452,93.8805 102.286,86.0472 106,76.5C 109.894,70.6381 115.061,66.3047 121.5,63.5C 119.14,61.1468 116.473,59.1468 113.5,57.5C 107.588,59.0679 101.588,60.5679 95.5,62C 92.2409,63.2106 89.4075,65.0439 87,67.5C 87.345,80.8235 87.345,94.1568 87,107.5C 86.5,108 86,108.5 85.5,109C 80.1667,109.667 74.8333,109.667 69.5,109C 68.9747,108.308 68.3081,107.808 67.5,107.5C 66.0963,87.1609 64.763,66.8276 63.5,46.5C 58.5,46.5 53.5,46.5 48.5,46.5C 48.6666,66.5028 48.5,86.5028 48,106.5C 47.5,107 47,107.5 46.5,108C 41.1667,108.667 35.8333,108.667 30.5,108C 29.9558,107.283 29.2891,106.783 28.5,106.5 Z"/></g>
<g><path style="opacity:1" fill="#1698c8" d="M 423.5,108.5 C 420.315,108.98 417.481,108.314 415,106.5C 414.5,97.5062 414.334,88.5062 414.5,79.5C 414.5,73.5 414.5,67.5 414.5,61.5C 411.482,61.3354 408.482,61.502 405.5,62C 411.54,66.2862 414.207,72.1196 413.5,79.5C 413.702,81.9496 413.369,84.283 412.5,86.5C 408.621,94.2086 402.621,99.7086 394.5,103C 380.298,108.219 365.631,110.553 350.5,110C 348.996,108.509 348.163,106.676 348,104.5C 347.194,98.9162 347.361,93.4162 348.5,88C 357.526,87.6652 366.526,86.9986 375.5,86C 379.385,85.2606 383.052,83.9272 386.5,82C 387.747,80.5064 387.747,79.0064 386.5,77.5C 384.556,76.8108 382.556,76.3108 380.5,76C 372.791,75.7623 365.124,75.0957 357.5,74C 343.451,68.0674 338.284,57.5674 342,42.5C 346.898,33.9567 354.064,28.1234 363.5,25C 376.165,20.6672 389.165,18.6672 402.5,19C 403,19.5 403.5,20 404,20.5C 403.947,27.1497 403.78,33.8164 403.5,40.5C 407.534,40.4955 411.534,40.1621 415.5,39.5C 415.334,33.4908 415.501,27.4908 416,21.5C 416.5,21 417,20.5 417.5,20C 422.108,18.8432 426.774,18.0098 431.5,17.5C 433.693,17.3262 435.527,17.9929 437,19.5C 437.499,25.4908 437.666,31.4908 437.5,37.5C 441.846,37.3343 446.179,37.501 450.5,38C 452.22,41.3408 453.72,44.8408 455,48.5C 464.248,38.5724 475.414,35.7391 488.5,40C 497.667,43.8333 504.167,50.3333 508,59.5C 508.333,53.5 508.667,47.5 509,41.5C 509.5,41 510,40.5 510.5,40C 516.112,38.563 521.779,37.8963 527.5,38C 528.866,39.5998 529.866,41.4332 530.5,43.5C 538.052,38.2591 546.386,35.7591 555.5,36C 556.893,37.1711 557.727,38.6711 558,40.5C 559.126,39.0564 560.626,38.3898 562.5,38.5C 567.5,39.6667 572.5,40.8333 577.5,42C 578.98,43.2991 579.646,44.9658 579.5,47C 575.989,56.878 573.656,67.0447 572.5,77.5C 572.199,81.4331 573.365,84.7664 576,87.5C 579.048,84.4315 581.381,80.7648 583,76.5C 586.278,66.7214 588.611,56.7214 590,46.5C 591.319,44.5125 593.152,43.3459 595.5,43C 600.143,42.0017 604.81,41.6683 609.5,42C 610.333,42.8333 611.167,43.6667 612,44.5C 615.466,69.3363 613.466,93.6696 606,117.5C 597.436,134.931 584.269,139.764 566.5,132C 558.776,126.385 554.943,118.885 555,109.5C 557.739,106.882 560.573,104.382 563.5,102C 558.715,97.9311 555.881,92.7644 555,86.5C 553.654,77.5586 553.154,68.5586 553.5,59.5C 544.942,59.2963 537.442,61.9629 531,67.5C 530.845,76.3265 531.012,85.1599 531.5,94C 531.333,98.5 531.167,103 531,107.5C 530.5,108 530,108.5 529.5,109C 524.167,109.667 518.833,109.667 513.5,109C 512.975,108.308 512.308,107.808 511.5,107.5C 510.669,100.189 510.169,92.8559 510,85.5C 504.158,106.315 490.658,114.149 469.5,109C 457.878,103.284 450.378,94.1171 447,81.5C 445.989,74.0234 446.489,66.6901 448.5,59.5C 444.555,58.5091 440.555,58.1758 436.5,58.5C 436.062,74.1734 435.395,89.84 434.5,105.5C 431.243,107.879 427.576,108.879 423.5,108.5 Z"/></g>
<g><path style="opacity:1" fill="#545776" d="M 6.5,19.5 C 6.33365,27.1739 6.50031,34.8406 7,42.5C 8.48131,43.4709 9.31465,44.8042 9.5,46.5C 8.20577,45.7101 7.0391,44.7101 6,43.5C 5.17721,35.3225 5.34387,27.3225 6.5,19.5 Z"/></g>
<g><path style="opacity:1" fill="#9698aa" d="M 440.5,17.5 C 441.208,19.3779 442.374,21.0445 444,22.5C 444.233,26.5845 444.733,30.5845 445.5,34.5C 443.833,34.5 442.167,34.5 440.5,34.5C 440.5,28.8333 440.5,23.1667 440.5,17.5 Z"/></g>
<g><path style="opacity:1" fill="#b7b8c5" d="M 407.5,20.5 C 410.2,21.1998 411.867,22.8664 412.5,25.5C 412.5,29.1667 412.5,32.8333 412.5,36.5C 410.833,36.5 409.167,36.5 407.5,36.5C 407.5,31.1667 407.5,25.8333 407.5,20.5 Z"/></g>
<g><path style="opacity:1" fill="#26b1fe" d="M 433.5,34.5 C 429.146,32.652 424.48,31.9853 419.5,32.5C 419.5,29.5 419.5,26.5 419.5,23.5C 424.183,22.9262 428.85,22.2596 433.5,21.5C 433.5,25.8333 433.5,30.1667 433.5,34.5 Z"/></g>
<g><path style="opacity:1" fill="#c6c8d1" d="M 77.5,24.5 C 82.0242,26.1975 83.6908,29.5308 82.5,34.5C 80.8333,34.5 79.1667,34.5 77.5,34.5C 77.5,31.1667 77.5,27.8333 77.5,24.5 Z"/></g>
<g><path style="opacity:1" fill="#4f5272" d="M 101.5,33.5 C 105.311,32.3547 109.311,32.1881 113.5,33C 115.141,34.129 116.141,35.629 116.5,37.5C 112.315,33.7893 107.315,32.456 101.5,33.5 Z"/></g>
<g><path style="opacity:1" fill="#474a6b" d="M 545.5,33.5 C 549.311,32.3547 553.311,32.1881 557.5,33C 558.167,33.6667 558.833,34.3333 559.5,35C 562.695,35.1805 565.695,35.6805 568.5,36.5C 560.963,35.021 553.297,34.021 545.5,33.5 Z"/></g>
<g><path style="opacity:1" fill="#2ab7fe" d="M 44.5,45.5 C 40.5,45.5 36.5,45.5 32.5,45.5C 32.7678,43.901 32.4345,42.5676 31.5,41.5C 25.3337,40.6024 19.0003,39.9357 12.5,39.5C 12.5,34.1667 12.5,28.8333 12.5,23.5C 31.4881,25.0992 50.4881,26.4325 69.5,27.5C 69.5,32.5 69.5,37.5 69.5,42.5C 61.1667,42.5 52.8333,42.5 44.5,42.5C 44.5,43.5 44.5,44.5 44.5,45.5 Z"/></g>
<g><path style="opacity:1" fill="#2bb8fe" d="M 364.5,46.5 C 358.266,45.1927 351.932,45.1927 345.5,46.5C 346.944,42.4556 349.278,38.9556 352.5,36C 367.233,27.1489 383.233,22.6489 400.5,22.5C 399.693,28.4638 399.36,34.4638 399.5,40.5C 387.234,39.5356 375.567,41.5356 364.5,46.5 Z"/></g>
<g><path style="opacity:1" fill="#2bb8fd" d="M 293.5,45.5 C 288.833,45.5 284.167,45.5 279.5,45.5C 279.5,41.1667 279.5,36.8333 279.5,32.5C 278.07,32.5792 276.736,32.2458 275.5,31.5C 274.167,27.8333 274.167,24.1667 275.5,20.5C 282.089,22.8131 288.755,24.8131 295.5,26.5C 295.021,32.8545 294.354,39.1879 293.5,45.5 Z"/></g>
<g><path style="opacity:1" fill="#0b3e6c" d="M 26.5,44.5 C 28.4885,64.8063 29.1551,85.473 28.5,106.5C 27.8225,85.9312 27.1558,65.2646 26.5,44.5 Z"/></g>
<g><path style="opacity:1" fill="#32c2fe" d="M 155.5,51.5 C 143.167,51.5 130.833,51.5 118.5,51.5C 126.81,41.2154 137.144,38.7154 149.5,44C 152.118,46.1057 154.118,48.6057 155.5,51.5 Z"/></g>
<g><path style="opacity:1" fill="#32c3fd" d="M 257.5,51.5 C 245.5,51.5 233.5,51.5 221.5,51.5C 228.993,43.6095 237.993,41.4428 248.5,45C 251.961,46.6428 254.961,48.8095 257.5,51.5 Z"/></g>
<g><path style="opacity:1" fill="#071640" d="M 385.5,44.5 C 390.5,44.5 395.5,44.5 400.5,44.5C 399.929,49.2565 398.929,53.9231 397.5,58.5C 388.859,57.6674 380.193,56.8341 371.5,56C 363.71,53.1274 363.71,50.4607 371.5,48C 376.317,46.9293 380.984,45.7627 385.5,44.5 Z"/></g>
<g><path style="opacity:1" fill="#31c1fe" d="M 419.5,32.5 C 424.48,31.9853 429.146,32.652 433.5,34.5C 433.187,37.2469 433.52,39.9135 434.5,42.5C 439.1,41.5565 443.767,41.2232 448.5,41.5C 449.167,45.1667 449.833,48.8333 450.5,52.5C 434.911,51.5162 419.244,51.1829 403.5,51.5C 404.219,49.2362 404.552,46.9029 404.5,44.5C 409.507,44.2491 414.507,43.9157 419.5,43.5C 419.5,39.8333 419.5,36.1667 419.5,32.5 Z"/></g>
<g><path style="opacity:1" fill="#32c3fd" d="M 497.5,51.5 C 484.5,51.5 471.5,51.5 458.5,51.5C 465.378,43.5968 474.044,40.7635 484.5,43C 489.583,44.8627 493.916,47.696 497.5,51.5 Z"/></g>
<g><path style="opacity:1" fill="#666984" d="M 505.5,40.5 C 505.664,43.1873 505.497,45.854 505,48.5C 504.283,47.9558 503.783,47.2891 503.5,46.5C 504.167,44.5 504.833,42.5 505.5,40.5 Z"/></g>
<g><path style="opacity:1" fill="#afb1bf" d="M 184.5,39.5 C 186.868,41.201 188.868,43.201 190.5,45.5C 189.439,48.5107 188.273,51.5107 187,54.5C 185.438,49.6983 184.605,44.6983 184.5,39.5 Z"/></g>
<g><path style="opacity:1" fill="#a5a7b7" d="M 10.5,46.5 C 15.4635,47.254 20.4635,47.5874 25.5,47.5C 25.5,67.8333 25.5,88.1667 25.5,108.5C 24.503,89.674 24.1697,70.674 24.5,51.5C 20.4908,51.1417 16.4908,50.6417 12.5,50C 11.1772,49.1841 10.5106,48.0174 10.5,46.5 Z"/></g>
<g><path style="opacity:1" fill="#a0a1b2" d="M 302.5,22.5 C 305.019,26.2914 306.019,30.6247 305.5,35.5C 303.799,51.4714 302.466,67.4714 301.5,83.5C 300.167,83.5 298.833,83.5 297.5,83.5C 299.116,63.1585 300.783,42.8252 302.5,22.5 Z"/></g>
<g><path style="opacity:1" fill="#9294a7" d="M 395.5,52.5 C 394.486,51.2353 392.986,50.5687 391,50.5C 386.833,50.6655 382.999,51.6655 379.5,53.5C 376.68,53.7525 374.014,53.2525 371.5,52C 379.576,49.1517 387.91,47.6517 396.5,47.5C 396.784,49.4147 396.451,51.0813 395.5,52.5 Z"/></g>
<g><path style="opacity:1" fill="#32c3f7" d="M 31.5,41.5 C 32.4345,42.5676 32.7678,43.901 32.5,45.5C 36.5,45.5 40.5,45.5 44.5,45.5C 44.5,50.1667 44.5,54.8333 44.5,59.5C 40.5,59.5 36.5,59.5 32.5,59.5C 32.5,63.8333 32.5,68.1667 32.5,72.5C 32.5,76.8333 32.5,81.1667 32.5,85.5C 32.5,91.8333 32.5,98.1667 32.5,104.5C 31.5027,83.6733 31.1694,62.6733 31.5,41.5 Z"/></g>
<g><path style="opacity:1" fill="#36c7fd" d="M 82.5,65.5 C 78.1667,65.5 73.8333,65.5 69.5,65.5C 68.2791,58.5117 68.2791,51.5117 69.5,44.5C 73.3509,42.8706 77.3509,41.8706 81.5,41.5C 81.1796,44.8984 81.513,48.2317 82.5,51.5C 90.3957,45.0529 99.3957,41.0529 109.5,39.5C 109.98,44.8221 110.313,50.1554 110.5,55.5C 99.6001,54.6872 90.2667,58.0205 82.5,65.5 Z"/></g>
<g><path style="opacity:1" fill="#37cafd" d="M 118.5,51.5 C 130.833,51.5 143.167,51.5 155.5,51.5C 157.531,54.4216 158.698,57.7549 159,61.5C 159.816,66.6842 159.65,71.6842 158.5,76.5C 158.5,75.1667 158.5,73.8333 158.5,72.5C 158.5,70.1667 158.5,67.8333 158.5,65.5C 149.167,65.5 139.833,65.5 130.5,65.5C 135.279,63.8035 140.279,62.4701 145.5,61.5C 143.551,54.859 139.218,52.359 132.5,54C 129.689,55.6437 127.356,57.8103 125.5,60.5C 122.5,58.3333 119.5,56.1667 116.5,54C 117.066,53.0053 117.733,52.172 118.5,51.5 Z"/></g>
<g><path style="opacity:1" fill="#35c6fd" d="M 179.5,61.5 C 174.807,59.6402 169.807,58.9735 164.5,59.5C 163.044,53.5541 161.71,47.5541 160.5,41.5C 166.075,41.8995 171.575,42.5661 177,43.5C 178.089,49.4719 178.923,55.4719 179.5,61.5 Z"/></g>
<g><path style="opacity:1" fill="#35c7fd" d="M 209.5,59.5 C 204.073,59.2175 198.74,59.5509 193.5,60.5C 195.567,55.2987 197.234,49.9654 198.5,44.5C 204.178,45.3908 209.844,46.3908 215.5,47.5C 213.672,51.6916 211.672,55.6916 209.5,59.5 Z"/></g>
<g><path style="opacity:1" fill="#35c7fd" d="M 279.5,45.5 C 284.167,45.5 288.833,45.5 293.5,45.5C 293.032,51.329 292.365,56.9956 291.5,62.5C 291.5,61.5 291.5,60.5 291.5,59.5C 286.52,58.9853 281.854,59.652 277.5,61.5C 277.989,56.1028 278.656,50.7695 279.5,45.5 Z"/></g>
<g><path style="opacity:1" fill="#39ccfd" d="M 403.5,51.5 C 419.244,51.1829 434.911,51.5162 450.5,52.5C 444.763,54.214 438.763,55.214 432.5,55.5C 432.826,64.0168 432.493,72.3501 431.5,80.5C 431.5,77.8333 431.5,75.1667 431.5,72.5C 427.167,72.5 422.833,72.5 418.5,72.5C 418.5,67.1667 418.5,61.8333 418.5,56.5C 413.146,56.5688 407.813,56.9022 402.5,57.5C 402.517,55.4352 402.85,53.4352 403.5,51.5 Z"/></g>
<g><path style="opacity:1" fill="#3acefd" d="M 458.5,51.5 C 471.5,51.5 484.5,51.5 497.5,51.5C 504.658,60.025 507.658,69.6916 506.5,80.5C 506.5,78.5 506.5,76.5 506.5,74.5C 502.5,74.5 498.5,74.5 494.5,74.5C 494.768,76.099 494.434,77.4324 493.5,78.5C 494.046,70.4234 491.379,63.5901 485.5,58C 477.583,53.6038 471.083,55.1038 466,62.5C 464.691,67.0658 464.191,71.7325 464.5,76.5C 463.566,75.4324 463.232,74.099 463.5,72.5C 459.5,72.5 455.5,72.5 451.5,72.5C 451.5,74.1667 451.5,75.8333 451.5,77.5C 449.321,67.6912 451.655,59.0245 458.5,51.5 Z"/></g>
<g><path style="opacity:1" fill="#36c7fd" d="M 526.5,65.5 C 522.167,65.5 517.833,65.5 513.5,65.5C 512.279,58.5117 512.279,51.5117 513.5,44.5C 517.351,42.8706 521.351,41.8706 525.5,41.5C 525.18,44.8984 525.513,48.2317 526.5,51.5C 534.396,45.0529 543.396,41.0529 553.5,39.5C 553.98,44.8221 554.313,50.1554 554.5,55.5C 543.6,54.6872 534.267,58.0205 526.5,65.5 Z"/></g>
<g><path style="opacity:1" fill="#35c7fd" d="M 570.5,60.5 C 568.696,59.838 566.696,59.5046 564.5,59.5C 561.887,59.6434 559.553,60.3101 557.5,61.5C 558.006,55.134 559.34,48.9674 561.5,43C 566.17,43.4968 570.836,44.3301 575.5,45.5C 574.007,50.6472 572.34,55.6472 570.5,60.5 Z"/></g>
<g><path style="opacity:1" fill="#35c7fc" d="M 609.5,64.5 C 608.549,63.0813 608.216,61.4147 608.5,59.5C 603.167,59.5 597.833,59.5 592.5,59.5C 592.686,55.552 593.352,51.7187 594.5,48C 598.73,46.419 603.064,45.7523 607.5,46C 609.275,51.9941 609.942,58.1608 609.5,64.5 Z"/></g>
<g><path style="opacity:1" fill="#c2c3cd" d="M 395.5,52.5 C 394.306,53.7773 392.64,54.4439 390.5,54.5C 386.837,54.0558 383.171,53.7225 379.5,53.5C 382.999,51.6655 386.833,50.6655 391,50.5C 392.986,50.5687 394.486,51.2353 395.5,52.5 Z"/></g>
<g><path style="opacity:1" fill="#9c9eaf" d="M 60.5,52.5 C 58.2776,52.178 56.4443,52.8446 55,54.5C 54.6667,73.5 54.3333,92.5 54,111.5C 53.3076,112.025 52.8076,112.692 52.5,113.5C 45.8582,114.664 39.1915,114.831 32.5,114C 31.7476,113.329 31.4142,112.496 31.5,111.5C 37.1764,111.666 42.8431,111.499 48.5,111C 49.3333,110.167 50.1667,109.333 51,108.5C 51.5,88.8362 51.6666,69.1695 51.5,49.5C 54.5,49.5 57.5,49.5 60.5,49.5C 60.5,50.5 60.5,51.5 60.5,52.5 Z"/></g>
<g><path style="opacity:1" fill="#cccdd6" d="M 60.5,52.5 C 61.4345,53.5676 61.7678,54.901 61.5,56.5C 60.596,55.791 60.2627,54.791 60.5,53.5C 59.1779,53.33 58.0113,53.6634 57,54.5C 56.6667,74.1667 56.3333,93.8333 56,113.5C 54.8289,114.893 53.3289,115.727 51.5,116C 45.1667,116.667 38.8333,116.667 32.5,116C 30.8588,114.871 29.8588,113.371 29.5,111.5C 30.1667,111.5 30.8333,111.5 31.5,111.5C 31.4142,112.496 31.7476,113.329 32.5,114C 39.1915,114.831 45.8582,114.664 52.5,113.5C 52.8076,112.692 53.3076,112.025 54,111.5C 54.3333,92.5 54.6667,73.5 55,54.5C 56.4443,52.8446 58.2776,52.178 60.5,52.5 Z"/></g>
<g><path style="opacity:1" fill="#39ccfe" d="M 221.5,51.5 C 233.5,51.5 245.5,51.5 257.5,51.5C 261.496,55.4836 264.496,60.1503 266.5,65.5C 262.4,65.2367 258.4,65.5701 254.5,66.5C 249.596,57.8108 242.596,55.6442 233.5,60C 231.934,62.3256 230.268,64.4922 228.5,66.5C 224.03,65.5139 219.363,65.1805 214.5,65.5C 215.266,59.9672 217.6,55.3005 221.5,51.5 Z"/></g>
<g><path style="opacity:1" fill="#1699c9" d="M 493.5,78.5 C 493.007,80.8056 492.674,83.139 492.5,85.5C 484.211,96.1569 475.878,96.1569 467.5,85.5C 465.905,82.7146 464.905,79.7146 464.5,76.5C 464.191,71.7325 464.691,67.0658 466,62.5C 471.083,55.1038 477.583,53.6038 485.5,58C 491.379,63.5901 494.046,70.4234 493.5,78.5 Z"/></g>
<g><path style="opacity:1" fill="#0c3e6c" d="M 134.5,57.5 C 136.429,57.2308 138.095,57.7308 139.5,59C 136.779,59.5682 134.112,59.9015 131.5,60C 132.571,59.1482 133.571,58.3149 134.5,57.5 Z"/></g>
<g><path style="opacity:1" fill="#169aca" d="M 254.5,66.5 C 246.258,71.4513 237.925,76.118 229.5,80.5C 228.686,75.8809 228.353,71.2142 228.5,66.5C 230.268,64.4922 231.934,62.3256 233.5,60C 242.596,55.6442 249.596,57.8108 254.5,66.5 Z"/></g>
<g><path style="opacity:1" fill="#3bd0fe" d="M 364.5,46.5 C 360.864,49.5238 360.531,53.0238 363.5,57C 365.5,58 367.5,59 369.5,60C 377.815,60.8877 386.149,61.5544 394.5,62C 401.469,63.1444 406.136,66.9777 408.5,73.5C 402.068,72.1927 395.734,72.1927 389.5,73.5C 379.568,72.0027 369.568,70.836 359.5,70C 348.598,66.0478 343.931,58.2144 345.5,46.5C 351.932,45.1927 358.266,45.1927 364.5,46.5 Z"/></g>
<g><path style="opacity:1" fill="#08143e" d="M 475.5,59.5 C 482.916,60.0762 487.416,64.0762 489,71.5C 490.217,77.8017 488.717,83.3017 484.5,88C 480.125,90.0822 476.292,89.2488 473,85.5C 468.387,79.0458 467.387,72.0458 470,64.5C 471.73,62.5981 473.563,60.9314 475.5,59.5 Z"/></g>
<g><path style="opacity:1" fill="#dddee4" d="M 300.5,20.5 C 307.002,22.1755 309.669,26.3422 308.5,33C 306.868,49.8526 305.201,66.6859 303.5,83.5C 302.833,83.5 302.167,83.5 301.5,83.5C 302.466,67.4714 303.799,51.4714 305.5,35.5C 306.019,30.6247 305.019,26.2914 302.5,22.5C 301.5,22.1667 300.833,21.5 300.5,20.5 Z"/></g>
<g><path style="opacity:1" fill="#04133d" d="M 414.5,79.5 C 414.167,79.5 413.833,79.5 413.5,79.5C 414.207,72.1196 411.54,66.2862 405.5,62C 408.482,61.502 411.482,61.3354 414.5,61.5C 414.5,67.5 414.5,73.5 414.5,79.5 Z"/></g>
<g><path style="opacity:1" fill="#06153f" d="M 239.5,61.5 C 242.928,61.5465 245.928,62.7132 248.5,65C 243.083,67.7903 237.916,70.957 233,74.5C 231.992,68.5157 234.159,64.1824 239.5,61.5 Z"/></g>
<g><path style="opacity:1" fill="#9698ab" d="M 582.5,43.5 C 583.605,44.6005 584.938,45.2671 586.5,45.5C 585.653,58.2257 582.319,70.2257 576.5,81.5C 576.073,71.1818 577.907,61.1818 582,51.5C 582.497,48.854 582.664,46.1873 582.5,43.5 Z"/></g>
<g><path style="opacity:1" fill="#3fd5ff" d="M 44.5,59.5 C 44.5,63.8333 44.5,68.1667 44.5,72.5C 40.5,72.5 36.5,72.5 32.5,72.5C 32.5,68.1667 32.5,63.8333 32.5,59.5C 36.5,59.5 40.5,59.5 44.5,59.5 Z"/></g>
<g><path style="opacity:1" fill="#41d7fd" d="M 130.5,65.5 C 139.833,65.5 149.167,65.5 158.5,65.5C 158.5,67.8333 158.5,70.1667 158.5,72.5C 153.847,71.9992 149.514,72.6658 145.5,74.5C 145.5,73.1667 145.5,71.8333 145.5,70.5C 136.039,69.9821 128.039,72.9821 121.5,79.5C 118.038,78.5184 114.371,78.185 110.5,78.5C 111.927,75.2364 114.261,72.7364 117.5,71C 121.635,68.5965 125.968,66.7632 130.5,65.5 Z"/></g>
<g><path style="opacity:1" fill="#3ed4fd" d="M 164.5,59.5 C 169.807,58.9735 174.807,59.6402 179.5,61.5C 180.329,66.1311 180.996,70.7978 181.5,75.5C 180.596,74.791 180.263,73.791 180.5,72.5C 176.167,72.5 171.833,72.5 167.5,72.5C 166.04,68.2966 165.04,63.9633 164.5,59.5 Z"/></g>
<g><path style="opacity:1" fill="#41d8fd" d="M 291.5,62.5 C 290.971,71.3614 289.971,80.028 288.5,88.5C 288.5,87.5 288.5,86.5 288.5,85.5C 284.167,85.5 279.833,85.5 275.5,85.5C 276.014,77.482 276.681,69.482 277.5,61.5C 281.854,59.652 286.52,58.9853 291.5,59.5C 291.5,60.5 291.5,61.5 291.5,62.5 Z"/></g>
<g><path style="opacity:1" fill="#3ed4fd" d="M 592.5,59.5 C 597.833,59.5 603.167,59.5 608.5,59.5C 608.216,61.4147 608.549,63.0813 609.5,64.5C 609.825,71.6866 609.491,78.6866 608.5,85.5C 608.5,81.1667 608.5,76.8333 608.5,72.5C 602.167,72.5 595.833,72.5 589.5,72.5C 590.029,68.0513 591.029,63.718 592.5,59.5 Z"/></g>
<g><path style="opacity:1" fill="#989aac" d="M 482.5,66.5 C 479.215,66.2693 476.715,67.6026 475,70.5C 474.502,73.8168 474.335,77.1501 474.5,80.5C 471.339,76.1898 470.839,71.5231 473,66.5C 476.208,62.5993 479.374,62.5993 482.5,66.5 Z"/></g>
<g><path style="opacity:1" fill="#c1c2cd" d="M 482.5,66.5 C 483.6,67.6049 484.267,68.9382 484.5,70.5C 481.453,68.8872 478.953,69.5538 477,72.5C 476.19,76.6895 476.69,80.6895 478.5,84.5C 476.29,84.106 474.957,82.7727 474.5,80.5C 474.335,77.1501 474.502,73.8168 475,70.5C 476.715,67.6026 479.215,66.2693 482.5,66.5 Z"/></g>
<g><path style="opacity:1" fill="#f3f3f5" d="M 484.5,70.5 C 487.482,75.7809 486.816,80.6142 482.5,85C 480.934,85.765 479.601,85.5983 478.5,84.5C 476.69,80.6895 476.19,76.6895 477,72.5C 478.953,69.5538 481.453,68.8872 484.5,70.5 Z"/></g>
<g><path style="opacity:1" fill="#c6c7d1" d="M 110.5,66.5 C 109.833,66.8333 109.167,67.1667 108.5,67.5C 102.923,67.8595 98.423,70.1929 95,74.5C 94.6667,88.1667 94.3333,101.833 94,115.5C 93.2496,116.126 92.4162,116.626 91.5,117C 84.8333,117.667 78.1667,117.667 71.5,117C 70.1487,115.383 68.482,114.216 66.5,113.5C 65.8728,112.583 65.5394,111.583 65.5,110.5C 67.1417,112.081 69.1417,112.747 71.5,112.5C 71.6107,113.117 71.944,113.617 72.5,114C 79.0816,114.81 85.5816,114.643 92,113.5C 92.3333,99.8333 92.6667,86.1667 93,72.5C 97.6538,69.199 102.82,66.8657 108.5,65.5C 109.416,65.5427 110.083,65.8761 110.5,66.5 Z"/></g>
<g><path style="opacity:1" fill="#179bca" d="M 145.5,74.5 C 144.992,79.2158 144.158,83.8824 143,88.5C 136.338,90.904 129.838,90.0707 123.5,86C 121.984,84.103 121.317,81.9363 121.5,79.5C 128.039,72.9821 136.039,69.9821 145.5,70.5C 145.5,71.8333 145.5,73.1667 145.5,74.5 Z"/></g>
<g><path style="opacity:1" fill="#051640" d="M 139.5,74.5 C 140.649,74.7911 141.316,75.6244 141.5,77C 140.725,79.8224 140.058,82.6557 139.5,85.5C 134.46,86.1515 130.127,84.8182 126.5,81.5C 126.977,80.5224 127.643,79.6891 128.5,79C 132.157,77.1776 135.824,75.6776 139.5,74.5 Z"/></g>
<g><path style="opacity:1" fill="#46e1fd" d="M 32.5,72.5 C 36.5,72.5 40.5,72.5 44.5,72.5C 44.5,76.8333 44.5,81.1667 44.5,85.5C 40.5,85.5 36.5,85.5 32.5,85.5C 32.5,81.1667 32.5,76.8333 32.5,72.5 Z"/></g>
<g><path style="opacity:1" fill="#44defd" d="M 69.5,65.5 C 73.8333,65.5 78.1667,65.5 82.5,65.5C 82.5,72.1667 82.5,78.8333 82.5,85.5C 78.5,85.5 74.5,85.5 70.5,85.5C 69.6204,78.8772 69.287,72.2105 69.5,65.5 Z"/></g>
<g><path style="opacity:1" fill="#43dbfd" d="M 209.5,59.5 C 205.677,69.1425 201.343,78.4758 196.5,87.5C 192.971,85.5772 188.971,84.9106 184.5,85.5C 187.305,77.0856 190.305,68.7523 193.5,60.5C 198.74,59.5509 204.073,59.2175 209.5,59.5 Z"/></g>
<g><path style="opacity:1" fill="#44ddfd" d="M 214.5,65.5 C 219.363,65.1805 224.03,65.5139 228.5,66.5C 228.353,71.2142 228.686,75.8809 229.5,80.5C 237.925,76.118 246.258,71.4513 254.5,66.5C 258.4,65.5701 262.4,65.2367 266.5,65.5C 266.703,67.3904 266.037,68.8904 264.5,70C 256.599,75.4162 248.599,80.5828 240.5,85.5C 232.648,85.1746 224.982,85.508 217.5,86.5C 216.224,84.4375 215.39,82.1042 215,79.5C 214.501,74.8452 214.334,70.1785 214.5,65.5 Z"/></g>
<g><path style="opacity:1" fill="#45e0fd" d="M 408.5,73.5 C 410.073,78.0854 409.739,82.4188 407.5,86.5C 401.69,85.5104 395.69,85.1771 389.5,85.5C 393.393,81.4229 393.393,77.4229 389.5,73.5C 395.734,72.1927 402.068,72.1927 408.5,73.5 Z"/></g>
<g><path style="opacity:1" fill="#46e1fd" d="M 418.5,72.5 C 422.833,72.5 427.167,72.5 431.5,72.5C 431.5,75.1667 431.5,77.8333 431.5,80.5C 431.5,82.1667 431.5,83.8333 431.5,85.5C 427.167,85.5 422.833,85.5 418.5,85.5C 418.5,81.1667 418.5,76.8333 418.5,72.5 Z"/></g>
<g><path style="opacity:1" fill="#45e0fd" d="M 464.5,76.5 C 464.905,79.7146 465.905,82.7146 467.5,85.5C 462.833,85.5 458.167,85.5 453.5,85.5C 452.232,83.0948 451.565,80.4282 451.5,77.5C 451.5,75.8333 451.5,74.1667 451.5,72.5C 455.5,72.5 459.5,72.5 463.5,72.5C 463.232,74.099 463.566,75.4324 464.5,76.5 Z"/></g>
<g><path style="opacity:1" fill="#45e0fd" d="M 506.5,80.5 C 506.634,82.2915 506.301,83.9582 505.5,85.5C 501.167,85.5 496.833,85.5 492.5,85.5C 492.674,83.139 493.007,80.8056 493.5,78.5C 494.434,77.4324 494.768,76.099 494.5,74.5C 498.5,74.5 502.5,74.5 506.5,74.5C 506.5,76.5 506.5,78.5 506.5,80.5 Z"/></g>
<g><path style="opacity:1" fill="#44defd" d="M 513.5,65.5 C 517.833,65.5 522.167,65.5 526.5,65.5C 526.5,72.1667 526.5,78.8333 526.5,85.5C 522.5,85.5 518.5,85.5 514.5,85.5C 513.62,78.8772 513.287,72.2105 513.5,65.5 Z"/></g>
<g><path style="opacity:1" fill="#43dcfd" d="M 570.5,60.5 C 568.549,69.1325 568.216,77.7991 569.5,86.5C 566.064,85.2185 562.731,85.2185 559.5,86.5C 557.769,78.4014 557.102,70.0681 557.5,61.5C 559.553,60.3101 561.887,59.6434 564.5,59.5C 566.696,59.5046 568.696,59.838 570.5,60.5 Z"/></g>
<g><path style="opacity:1" fill="#45e0fd" d="M 589.5,72.5 C 595.833,72.5 602.167,72.5 608.5,72.5C 608.5,76.8333 608.5,81.1667 608.5,85.5C 600.167,85.5 591.833,85.5 583.5,85.5C 585.792,81.2527 587.792,76.9194 589.5,72.5 Z"/></g>
<g><path style="opacity:1" fill="#aeb0be" d="M 350.5,74.5 C 352.14,75.3201 353.807,76.1534 355.5,77C 364.519,77.9222 373.519,78.9222 382.5,80C 378.979,81.6738 375.313,82.8404 371.5,83.5C 366.868,81.8283 361.868,80.6616 356.5,80C 355.377,78.9563 354.044,78.2896 352.5,78C 351.177,77.1841 350.511,76.0174 350.5,74.5 Z"/></g>
<g><path style="opacity:1" fill="#43e2f8" d="M 158.5,72.5 C 158.5,73.8333 158.5,75.1667 158.5,76.5C 158.205,81.5636 157.538,86.5636 156.5,91.5C 141.324,91.1706 126.324,91.5039 111.5,92.5C 109.106,90.6682 108.106,88.1682 108.5,85C 108.336,82.4563 109.003,80.2897 110.5,78.5C 114.371,78.185 118.038,78.5184 121.5,79.5C 121.317,81.9363 121.984,84.103 123.5,86C 129.838,90.0707 136.338,90.904 143,88.5C 144.158,83.8824 144.992,79.2158 145.5,74.5C 149.514,72.6658 153.847,71.9992 158.5,72.5 Z"/></g>
<g><path style="opacity:1" fill="#84869b" d="M 134.5,79.5 C 135.5,79.5 136.5,79.5 137.5,79.5C 137.5,80.5 137.5,81.5 137.5,82.5C 135.692,82.5086 134.025,82.0086 132.5,81C 133.416,80.7216 134.082,80.2216 134.5,79.5 Z"/></g>
<g><path style="opacity:1" fill="#42e2f8" d="M 167.5,72.5 C 171.833,72.5 176.167,72.5 180.5,72.5C 180.263,73.791 180.596,74.791 181.5,75.5C 181.917,79.8346 182.417,84.1679 183,88.5C 184.039,87.7562 184.539,86.7562 184.5,85.5C 188.971,84.9106 192.971,85.5772 196.5,87.5C 196.34,89.153 195.674,90.4863 194.5,91.5C 186.648,91.1746 178.982,91.508 171.5,92.5C 169.538,86.0836 168.204,79.4169 167.5,72.5 Z"/></g>
<g><path style="opacity:1" fill="#3ee4f1" d="M 569.5,86.5 C 574.413,94.4639 579.08,94.1306 583.5,85.5C 591.833,85.5 600.167,85.5 608.5,85.5C 608.043,91.7199 607.043,97.7199 605.5,103.5C 605.5,102.5 605.5,101.5 605.5,100.5C 601.173,100.016 597.173,100.682 593.5,102.5C 594.335,97.4962 594.835,92.4962 595,87.5C 589.561,100.309 580.394,104.475 567.5,100C 563.159,96.4846 560.493,91.9846 559.5,86.5C 562.731,85.2185 566.064,85.2185 569.5,86.5 Z"/></g>
<g><path style="opacity:1" fill="#3de4f1" d="M 240.5,85.5 C 238.906,86.983 237.24,88.483 235.5,90C 238.37,93.4352 242.037,95.2686 246.5,95.5C 254.089,94.5391 260.422,91.2058 265.5,85.5C 268.167,87.5 270.5,89.8333 272.5,92.5C 270.812,94.8545 268.812,96.8545 266.5,98.5C 253.167,97.1667 239.833,97.1667 226.5,98.5C 222.529,95.2241 219.529,91.2241 217.5,86.5C 224.982,85.508 232.648,85.1746 240.5,85.5 Z"/></g>
<g><path style="opacity:1" fill="#3de6ef" d="M 32.5,85.5 C 36.5,85.5 40.5,85.5 44.5,85.5C 44.5,91.8333 44.5,98.1667 44.5,104.5C 40.5,104.5 36.5,104.5 32.5,104.5C 32.5,98.1667 32.5,91.8333 32.5,85.5 Z"/></g>
<g><path style="opacity:1" fill="#3be4ee" d="M 70.5,85.5 C 74.5,85.5 78.5,85.5 82.5,85.5C 83.2757,92.1373 83.609,98.8039 83.5,105.5C 79.1667,105.5 74.8333,105.5 70.5,105.5C 70.5,98.8333 70.5,92.1667 70.5,85.5 Z"/></g>
<g><path style="opacity:1" fill="#3ce5ee" d="M 275.5,85.5 C 279.833,85.5 284.167,85.5 288.5,85.5C 288.5,86.5 288.5,87.5 288.5,88.5C 288.338,90.5273 288.505,92.5273 289,94.5C 292.333,93.1667 295.667,91.8333 299,90.5C 298.876,95.1356 298.71,99.8023 298.5,104.5C 290.149,104.482 281.816,104.815 273.5,105.5C 274.035,98.8167 274.702,92.1501 275.5,85.5 Z"/></g>
<g><path style="opacity:1" fill="#3de4f0" d="M 389.5,85.5 C 395.69,85.1771 401.69,85.5104 407.5,86.5C 404.402,92.2603 399.735,96.2603 393.5,98.5C 380.01,97.5043 366.344,97.171 352.5,97.5C 352.5,99.1667 352.5,100.833 352.5,102.5C 351.518,99.0381 351.185,95.3714 351.5,91.5C 360.203,91.6449 368.87,91.1449 377.5,90C 381.763,89.1048 385.763,87.6048 389.5,85.5 Z"/></g>
<g><path style="opacity:1" fill="#3be4ee" d="M 418.5,85.5 C 422.833,85.5 427.167,85.5 431.5,85.5C 431.5,91.5 431.5,97.5 431.5,103.5C 426.817,104.074 422.15,104.74 417.5,105.5C 417.833,98.8333 418.167,92.1667 418.5,85.5 Z"/></g>
<g><path style="opacity:1" fill="#3ee4f1" d="M 453.5,85.5 C 458.167,85.5 462.833,85.5 467.5,85.5C 475.878,96.1569 484.211,96.1569 492.5,85.5C 496.833,85.5 501.167,85.5 505.5,85.5C 504.849,90.8236 502.516,95.1569 498.5,98.5C 486.167,97.1667 473.833,97.1667 461.5,98.5C 457.583,95.0121 454.917,90.6788 453.5,85.5 Z"/></g>
<g><path style="opacity:1" fill="#3be4ee" d="M 514.5,85.5 C 518.5,85.5 522.5,85.5 526.5,85.5C 527.276,92.1373 527.609,98.8039 527.5,105.5C 523.167,105.5 518.833,105.5 514.5,105.5C 514.5,98.8333 514.5,92.1667 514.5,85.5 Z"/></g>
<g><path style="opacity:1" fill="#999bad" d="M 443.5,65.5 C 442.778,65.9175 442.278,66.5842 442,67.5C 441.474,82.2208 440.474,96.8874 439,111.5C 432.139,113.593 425.306,113.926 418.5,112.5C 425.461,112.848 431.795,111.182 437.5,107.5C 438.382,92.5062 439.049,77.5062 439.5,62.5C 440.833,62.5 442.167,62.5 443.5,62.5C 443.5,63.5 443.5,64.5 443.5,65.5 Z"/></g>
<g><path style="opacity:1" fill="#38e5ea" d="M 156.5,91.5 C 155.756,96.8846 154.756,102.218 153.5,107.5C 140.917,106.521 128.917,103.354 117.5,98C 115.004,96.669 113.004,94.8356 111.5,92.5C 126.324,91.5039 141.324,91.1706 156.5,91.5 Z"/></g>
<g><path style="opacity:1" fill="#38e5ea" d="M 194.5,91.5 C 192.679,95.8119 190.846,100.145 189,104.5C 188.107,105.081 187.107,105.415 186,105.5C 181.799,104.941 177.632,104.275 173.5,103.5C 172.294,99.9285 171.627,96.2618 171.5,92.5C 178.982,91.508 186.648,91.1746 194.5,91.5 Z"/></g>
<g><path style="opacity:1" fill="#37e7e9" d="M 266.5,98.5 C 253.004,107.636 239.67,107.636 226.5,98.5C 239.833,97.1667 253.167,97.1667 266.5,98.5 Z"/></g>
<g><path style="opacity:1" fill="#37e7e8" d="M 393.5,98.5 C 380.358,103.571 366.692,106.237 352.5,106.5C 352.5,105.167 352.5,103.833 352.5,102.5C 352.5,100.833 352.5,99.1667 352.5,97.5C 366.344,97.171 380.01,97.5043 393.5,98.5 Z"/></g>
<g><path style="opacity:1" fill="#37e7e8" d="M 498.5,98.5 C 491.63,105.321 483.297,107.821 473.5,106C 468.93,104.226 464.93,101.726 461.5,98.5C 473.833,97.1667 486.167,97.1667 498.5,98.5 Z"/></g>
<g><path style="opacity:1" fill="#106c9b" d="M 413.5,79.5 C 413.833,79.5 414.167,79.5 414.5,79.5C 414.334,88.5062 414.5,97.5062 415,106.5C 417.481,108.314 420.315,108.98 423.5,108.5C 420.204,110.027 417.038,109.693 414,107.5C 413.829,100.321 413.329,93.3213 412.5,86.5C 413.369,84.283 413.702,81.9496 413.5,79.5 Z"/></g>
<g><path style="opacity:1" fill="#b1b2c0" d="M 443.5,65.5 C 443.347,71.8692 443.68,78.2026 444.5,84.5C 443.883,84.6107 443.383,84.944 443,85.5C 442.085,94.147 441.418,102.814 441,111.5C 438.958,113.604 436.458,114.771 433.5,115C 427.782,115.74 422.115,115.573 416.5,114.5C 416.5,113.833 416.5,113.167 416.5,112.5C 417.167,112.5 417.833,112.5 418.5,112.5C 425.306,113.926 432.139,113.593 439,111.5C 440.474,96.8874 441.474,82.2208 442,67.5C 442.278,66.5842 442.778,65.9175 443.5,65.5 Z"/></g>
<g><path style="opacity:1" fill="#b2b4c1" d="M 550.5,67.5 C 550.5,70.8333 550.5,74.1667 550.5,77.5C 549.834,74.6417 549.167,71.6417 548.5,68.5C 546.55,69.3721 544.55,70.0388 542.5,70.5C 540.629,70.8588 539.129,71.8588 538,73.5C 537.667,87.1667 537.333,100.833 537,114.5C 536.25,115.126 535.416,115.626 534.5,116C 528.5,116.667 522.5,116.667 516.5,116C 515.29,114.961 514.29,113.794 513.5,112.5C 514.167,112.5 514.833,112.5 515.5,112.5C 515.611,113.117 515.944,113.617 516.5,114C 523.082,114.81 529.582,114.643 536,113.5C 536.807,99.6339 536.641,85.8006 535.5,72C 535.645,71.228 535.978,70.5613 536.5,70C 540.921,67.1785 545.588,66.3452 550.5,67.5 Z"/></g>
<g><path style="opacity:1" fill="#34e8e4" d="M 605.5,103.5 C 605.741,105.898 605.074,107.898 603.5,109.5C 599.5,109.5 595.5,109.5 591.5,109.5C 592.015,107.106 592.681,104.772 593.5,102.5C 597.173,100.682 601.173,100.016 605.5,100.5C 605.5,101.5 605.5,102.5 605.5,103.5 Z"/></g>
<g><path style="opacity:1" fill="#05123c" d="M 586.5,103.5 C 587.376,103.369 588.043,103.702 588.5,104.5C 587.462,109.267 584.962,112.934 581,115.5C 576.61,114.043 574.11,111.043 573.5,106.5C 578.312,107.035 582.645,106.035 586.5,103.5 Z"/></g>
<g><path style="opacity:1" fill="#9a9cae" d="M 615.5,45.5 C 617.027,45.427 618.027,46.0937 618.5,47.5C 618.667,62.837 618.5,78.1703 618,93.5C 617.383,106.299 613.883,118.132 607.5,129C 603.575,131.251 599.908,133.917 596.5,137C 595.207,137.49 593.873,137.657 592.5,137.5C 604.305,130.162 611.138,119.496 613,105.5C 616.54,85.5955 617.373,65.5955 615.5,45.5 Z"/></g>
<g><path style="opacity:1" fill="#9d9fb0" d="M 210.5,91.5 C 205.981,97.4981 202.481,104.165 200,111.5C 198.833,112.667 197.667,113.833 196.5,115C 188.403,115.654 180.403,114.987 172.5,113C 171.619,112.292 170.953,111.458 170.5,110.5C 177.738,112.198 185.072,112.698 192.5,112C 193.667,110.833 194.833,109.667 196,108.5C 200,99.8333 204,91.1667 208,82.5C 208.395,85.652 209.228,88.652 210.5,91.5 Z"/></g>
<g><path style="opacity:1" fill="#e5e5ea" d="M 615.5,42.5 C 618.651,44.1678 620.484,46.8345 621,50.5C 621.7,69.8496 621.366,89.1829 620,108.5C 618.978,113.256 617.644,117.923 616,122.5C 611.262,130.241 605.428,137.074 598.5,143C 593.917,144.073 589.251,144.573 584.5,144.5C 580.435,144.489 576.768,143.822 573.5,142.5C 592.533,145.902 606.033,138.902 614,121.5C 620.098,98.5752 622.098,75.2419 620,51.5C 619.79,49.9419 619.29,48.6085 618.5,47.5C 618.027,46.0937 617.027,45.427 615.5,45.5C 615.5,44.5 615.5,43.5 615.5,42.5 Z"/></g>
<g><path style="opacity:1" fill="#9a9cae" d="M 110.5,66.5 C 110.083,65.8761 109.416,65.5427 108.5,65.5C 102.82,66.8657 97.6538,69.199 93,72.5C 92.6667,86.1667 92.3333,99.8333 92,113.5C 85.5816,114.643 79.0816,114.81 72.5,114C 71.944,113.617 71.6107,113.117 71.5,112.5C 76.8437,112.666 82.1771,112.499 87.5,112C 88.3333,111.167 89.1667,110.333 90,109.5C 90.3801,96.1554 90.3801,82.822 90,69.5C 97.577,63.814 106.077,61.6473 115.5,63C 113.677,63.9973 112.01,65.1639 110.5,66.5 Z"/></g>
<g><path style="opacity:1" fill="#9d9fb1" d="M 306.5,88.5 C 307.458,88.9528 308.292,89.6195 309,90.5C 309.667,97.1667 309.667,103.833 309,110.5C 308.051,112.093 306.885,113.426 305.5,114.5C 294.828,114.667 284.161,114.5 273.5,114C 272.584,113.722 271.918,113.222 271.5,112.5C 281.853,112.45 292.186,111.95 302.5,111C 303.333,110.167 304.167,109.333 305,108.5C 306.137,101.88 306.637,95.2137 306.5,88.5 Z"/></g>
<g><path style="opacity:1" fill="#9b9daf" d="M 550.5,67.5 C 545.588,66.3452 540.921,67.1785 536.5,70C 535.978,70.5613 535.645,71.228 535.5,72C 536.641,85.8006 536.807,99.6339 536,113.5C 529.582,114.643 523.082,114.81 516.5,114C 515.944,113.617 515.611,113.117 515.5,112.5C 520.844,112.666 526.177,112.499 531.5,112C 532.333,111.167 533.167,110.333 534,109.5C 534.38,96.1554 534.38,82.822 534,69.5C 538.597,65.9525 543.763,63.6192 549.5,62.5C 550.452,64.0453 550.785,65.712 550.5,67.5 Z"/></g>
<g><path style="opacity:1" fill="#a5a7b6" d="M 166.5,107.5 C 165.216,110.638 163.883,113.805 162.5,117C 157.5,117.667 152.5,117.667 147.5,117C 140.377,115.969 133.377,114.469 126.5,112.5C 122.188,110.679 117.855,108.846 113.5,107C 112.177,106.184 111.511,105.017 111.5,103.5C 125.776,111.383 141.11,114.883 157.5,114C 158.333,113.167 159.167,112.333 160,111.5C 160.954,106.396 162.287,101.396 164,96.5C 164.649,100.25 165.482,103.917 166.5,107.5 Z"/></g>
<g><path style="opacity:1" fill="#9fa1b2" d="M 269.5,112.5 C 259.394,115.386 249.06,116.219 238.5,115C 236.68,114.8 235.347,113.966 234.5,112.5C 240.842,112.666 247.175,112.5 253.5,112C 257.77,111.743 261.77,110.576 265.5,108.5C 267.188,109.521 268.521,110.855 269.5,112.5 Z"/></g>
<g><path style="opacity:1" fill="#a5a6b6" d="M 410.5,103.5 C 400.707,110.492 389.707,114.659 377.5,116C 368.87,117.368 360.203,117.702 351.5,117C 350.177,116.184 349.511,115.017 349.5,113.5C 363.428,113.59 377.094,111.756 390.5,108C 398.171,106.084 404.671,102.25 410,96.5C 410.497,98.8098 410.663,101.143 410.5,103.5 Z"/></g>
<g><path style="opacity:1" fill="#a7a9b8" d="M 508.5,109.5 C 507.883,109.389 507.383,109.056 507,108.5C 505.235,111.473 502.735,113.64 499.5,115C 487.476,118.9 475.809,118.234 464.5,113C 463.177,112.184 462.511,111.017 462.5,109.5C 464.807,110.653 467.14,111.82 469.5,113C 484.519,116.887 497.019,113.053 507,101.5C 508.252,104.014 508.752,106.68 508.5,109.5 Z"/></g>
<g><path style="opacity:1" fill="#c1c3cd" d="M 226.5,108.5 C 229.232,109.866 231.899,111.199 234.5,112.5C 235.347,113.966 236.68,114.8 238.5,115C 249.06,116.219 259.394,115.386 269.5,112.5C 270.167,112.5 270.833,112.5 271.5,112.5C 271.918,113.222 272.584,113.722 273.5,114C 284.161,114.5 294.828,114.667 305.5,114.5C 294.659,116.414 283.659,116.748 272.5,115.5C 269.184,114.385 265.851,114.552 262.5,116C 253.833,116.667 245.167,116.667 236.5,116C 232.189,114.648 228.856,112.148 226.5,108.5 Z"/></g>
<g><path style="opacity:1" fill="#d3d4db" d="M 444.5,84.5 C 445.167,86.5 445.833,88.5 446.5,90.5C 445.25,90.5774 444.417,91.244 444,92.5C 443.667,98.5 443.333,104.5 443,110.5C 442.215,112.286 441.049,113.786 439.5,115C 432.223,116.467 424.889,116.801 417.5,116C 416.944,115.617 416.611,115.117 416.5,114.5C 422.115,115.573 427.782,115.74 433.5,115C 436.458,114.771 438.958,113.604 441,111.5C 441.418,102.814 442.085,94.147 443,85.5C 443.383,84.944 443.883,84.6107 444.5,84.5 Z"/></g>
<g><path style="opacity:1" fill="#d5d6dd" d="M 166.5,107.5 C 167.5,107.833 168.167,108.5 168.5,109.5C 167.051,112.338 165.385,115.172 163.5,118C 161.298,119.022 158.965,119.522 156.5,119.5C 145.988,118.819 135.988,116.485 126.5,112.5C 133.377,114.469 140.377,115.969 147.5,117C 152.5,117.667 157.5,117.667 162.5,117C 163.883,113.805 165.216,110.638 166.5,107.5 Z"/></g>
<g><path style="opacity:1" fill="#e3e4e9" d="M 306.5,88.5 C 306.5,88.1667 306.5,87.8333 306.5,87.5C 308.722,87.178 310.556,87.8446 312,89.5C 312.667,96.8333 312.667,104.167 312,111.5C 310.833,113 309.667,114.5 308.5,116C 302.244,117.103 295.911,117.603 289.5,117.5C 284.167,117.333 278.833,117.167 273.5,117C 272.944,116.617 272.611,116.117 272.5,115.5C 283.659,116.748 294.659,116.414 305.5,114.5C 306.885,113.426 308.051,112.093 309,110.5C 309.667,103.833 309.667,97.1667 309,90.5C 308.292,89.6195 307.458,88.9528 306.5,88.5 Z"/></g>
<g><path style="opacity:1" fill="#d6d7de" d="M 542.5,70.5 C 541.542,71.9616 540.376,73.2949 539,74.5C 538.807,82.9946 538.973,91.4946 539.5,100C 539.585,105.248 539.085,110.415 538,115.5C 537.25,116.126 536.416,116.626 535.5,117C 528.833,117.667 522.167,117.667 515.5,117C 514.149,115.383 512.482,114.216 510.5,113.5C 509.873,112.583 509.539,111.583 509.5,110.5C 510.605,111.6 511.938,112.267 513.5,112.5C 514.29,113.794 515.29,114.961 516.5,116C 522.5,116.667 528.5,116.667 534.5,116C 535.416,115.626 536.25,115.126 537,114.5C 537.333,100.833 537.667,87.1667 538,73.5C 539.129,71.8588 540.629,70.8588 542.5,70.5 Z"/></g>
<g><path style="opacity:1" fill="#e4e4e9" d="M 210.5,91.5 C 211.6,92.6049 212.267,93.9382 212.5,95.5C 211.504,95.4142 210.671,95.7476 210,96.5C 207.133,102.116 204.466,107.783 202,113.5C 200.5,115 199,116.5 197.5,118C 189.792,118.706 182.125,118.372 174.5,117C 171.681,115.107 169.681,112.607 168.5,109.5C 169.167,109.833 169.833,110.167 170.5,110.5C 170.953,111.458 171.619,112.292 172.5,113C 180.403,114.987 188.403,115.654 196.5,115C 197.667,113.833 198.833,112.667 200,111.5C 202.481,104.165 205.981,97.4981 210.5,91.5 Z"/></g>
<g><path style="opacity:1" fill="#2bebda" d="M 591.5,109.5 C 595.5,109.5 599.5,109.5 603.5,109.5C 602.82,114.522 600.82,118.856 597.5,122.5C 586.346,121.505 575.012,121.172 563.5,121.5C 561.087,119.015 559.42,116.015 558.5,112.5C 561.163,110.008 563.996,107.674 567,105.5C 569.021,110.193 571.854,114.36 575.5,118C 583.675,120.744 589.008,117.911 591.5,109.5 Z"/></g>
<g><path style="opacity:1" fill="#8a8ca0" d="M 578.5,110.5 C 579.601,109.402 580.934,109.235 582.5,110C 581.318,111.768 579.985,111.935 578.5,110.5 Z"/></g>
<g><path style="opacity:1" fill="#23efcd" d="M 563.5,121.5 C 575.012,121.172 586.346,121.505 597.5,122.5C 589.38,132.051 579.713,133.884 568.5,128C 566.21,126.223 564.543,124.056 563.5,121.5 Z"/></g>
<g><path style="opacity:1" fill="#adaebd" d="M 618.5,47.5 C 619.29,48.6085 619.79,49.9419 620,51.5C 622.098,75.2419 620.098,98.5752 614,121.5C 606.033,138.902 592.533,145.902 573.5,142.5C 571.727,141.108 569.727,139.941 567.5,139C 566.177,138.184 565.511,137.017 565.5,135.5C 567.14,136.32 568.807,137.153 570.5,138C 577.869,138.726 585.202,138.559 592.5,137.5C 593.873,137.657 595.207,137.49 596.5,137C 599.908,133.917 603.575,131.251 607.5,129C 613.883,118.132 617.383,106.299 618,93.5C 618.5,78.1703 618.667,62.837 618.5,47.5 Z"/></g>
</svg>
