<?xml version="1.0" encoding="UTF-8"?>
<!DOCTYPE svg PUBLIC "-//W3C//DTD SVG 1.1//EN" "http://www.w3.org/Graphics/SVG/1.1/DTD/svg11.dtd">
<svg xmlns="http://www.w3.org/2000/svg" version="1.1" width="512px" height="512px" style="shape-rendering:geometricPrecision; text-rendering:geometricPrecision; image-rendering:optimizeQuality; fill-rule:evenodd; clip-rule:evenodd" xmlns:xlink="http://www.w3.org/1999/xlink">
<g><path style="opacity:0.996" fill="#072a75" d="M 21.5,-0.5 C 177.5,-0.5 333.5,-0.5 489.5,-0.5C 500.5,3.16667 507.833,10.5 511.5,21.5C 511.5,156.833 511.5,292.167 511.5,427.5C 507.378,440.115 498.711,447.615 485.5,450C 453.167,450.333 420.833,450.667 388.5,451C 398.413,471.106 395.079,488.772 378.5,504C 373.458,507.357 368.124,509.857 362.5,511.5C 291.167,511.5 219.833,511.5 148.5,511.5C 124.345,503.546 114.179,486.879 118,461.5C 118.92,457.737 120.42,454.237 122.5,451C 90.1667,450.667 57.8333,450.333 25.5,450C 12.2888,447.615 3.62216,440.115 -0.5,427.5C -0.5,292.167 -0.5,156.833 -0.5,21.5C 3.16667,10.5 10.5,3.16667 21.5,-0.5 Z"/></g>
<g><path style="opacity:1" fill="#b0d852" d="M 58.5,19.5 C 58.5,32.5 58.5,45.5 58.5,58.5C 45.5,58.5 32.5,58.5 19.5,58.5C 19.3335,47.495 19.5002,36.495 20,25.5C 21.1667,23 23,21.1667 25.5,20C 36.495,19.5002 47.495,19.3335 58.5,19.5 Z"/></g>
<g><path style="opacity:1" fill="#fcca50" d="M 79.5,19.5 C 92.5,19.5 105.5,19.5 118.5,19.5C 118.5,32.5 118.5,45.5 118.5,58.5C 118.5,45.5 118.5,32.5 118.5,19.5C 105.5,19.5 92.5,19.5 79.5,19.5 Z"/></g>
<g><path style="opacity:1" fill="#fc604f" d="M 138.5,19.5 C 151.5,19.5 164.5,19.5 177.5,19.5C 177.5,32.5 177.5,45.5 177.5,58.5C 164.5,58.5 151.5,58.5 138.5,58.5C 138.5,45.5 138.5,32.5 138.5,19.5 Z"/></g>
<g><path style="opacity:1" fill="#d1dbfc" d="M 198.5,19.5 C 293.501,19.3333 388.501,19.5 483.5,20C 487.02,20.504 489.52,22.3374 491,25.5C 491.5,36.495 491.667,47.495 491.5,58.5C 393.833,58.5 296.167,58.5 198.5,58.5C 198.5,45.5 198.5,32.5 198.5,19.5 Z"/></g>
<g><path style="opacity:1" fill="#567b64" d="M 58.5,19.5 C 59.4956,32.6562 59.8289,45.9895 59.5,59.5C 45.9895,59.8289 32.6562,59.4956 19.5,58.5C 32.5,58.5 45.5,58.5 58.5,58.5C 58.5,45.5 58.5,32.5 58.5,19.5 Z"/></g>
<g><path style="opacity:1" fill="#7b7662" d="M 79.5,19.5 C 79.5,32.5 79.5,45.5 79.5,58.5C 92.5,58.5 105.5,58.5 118.5,58.5C 105.344,59.4956 92.0105,59.8289 78.5,59.5C 78.1711,45.9895 78.5044,32.6562 79.5,19.5 Z"/></g>
<g><path style="opacity:1" fill="#667eb5" d="M 198.5,19.5 C 198.5,32.5 198.5,45.5 198.5,58.5C 296.167,58.5 393.833,58.5 491.5,58.5C 393.668,59.4994 295.668,59.8328 197.5,59.5C 197.171,45.9895 197.504,32.6562 198.5,19.5 Z"/></g>
<g><path style="opacity:1" fill="#fefefe" d="M 409.5,429.5 C 378.943,375.392 348.11,321.392 317,267.5C 300.411,240.624 276.245,228.79 244.5,232C 222.388,236.463 205.555,248.296 194,267.5C 181.667,289.167 169.333,310.833 157,332.5C 154.965,336.343 152.465,339.676 149.5,342.5C 116.529,341.355 83.5295,341.188 50.5,342C 41.1667,348.333 41.1667,354.667 50.5,361C 80.1648,361.5 109.831,361.667 139.5,361.5C 126.833,384.167 114.167,406.833 101.5,429.5C 76.1645,429.667 50.8311,429.5 25.5,429C 22.6193,427.749 20.786,425.583 20,422.5C 19.5,307.834 19.3333,193.167 19.5,78.5C 176.833,78.5 334.167,78.5 491.5,78.5C 491.667,193.167 491.5,307.834 491,422.5C 490.214,425.583 488.381,427.749 485.5,429C 460.169,429.5 434.836,429.667 409.5,429.5 Z"/></g>
<g><path style="opacity:1" fill="#67ccd1" d="M 143.5,113.5 C 217.501,113.333 291.501,113.5 365.5,114C 378.338,118.187 383.838,127.02 382,140.5C 379.5,149 374,154.5 365.5,157C 292.167,157.667 218.833,157.667 145.5,157C 128.595,149.616 124.428,137.783 133,121.5C 135.94,117.963 139.44,115.297 143.5,113.5 Z"/></g>
<g><path style="opacity:1" fill="#6864f7" d="M 184.5,191.5 C 231.168,191.333 277.835,191.5 324.5,192C 332.871,195.119 334.704,200.619 330,208.5C 328.352,209.717 326.519,210.55 324.5,211C 277.833,211.667 231.167,211.667 184.5,211C 176.53,204.423 176.53,197.923 184.5,191.5 Z"/></g>
<g><path style="opacity:1" fill="#d1dbfc" d="M 409.5,429.5 C 397.919,429.821 386.419,429.488 375,428.5C 345.667,377.833 316.333,327.167 287,276.5C 274.148,262.744 258.648,258.577 240.5,264C 234.192,267.074 228.692,271.24 224,276.5C 194.667,327.167 165.333,377.833 136,428.5C 124.581,429.488 113.081,429.821 101.5,429.5C 114.167,406.833 126.833,384.167 139.5,361.5C 149.356,362.468 154.19,358.135 154,348.5C 152.668,346.34 151.168,344.34 149.5,342.5C 152.465,339.676 154.965,336.343 157,332.5C 169.333,310.833 181.667,289.167 194,267.5C 205.555,248.296 222.388,236.463 244.5,232C 276.245,228.79 300.411,240.624 317,267.5C 348.11,321.392 378.943,375.392 409.5,429.5 Z"/></g>
<g><path style="opacity:1" fill="#6a66f7" d="M 49.5,253.5 C 82.1684,253.333 114.835,253.5 147.5,254C 154.671,257.522 156.171,262.688 152,269.5C 150.421,271.041 148.587,272.208 146.5,273C 114.5,273.667 82.5,273.667 50.5,273C 41.635,266.869 41.3016,260.369 49.5,253.5 Z"/></g>
<g><path style="opacity:1" fill="#fc5f50" d="M 250.5,281.5 C 258.575,280.358 265.408,282.691 271,288.5C 305.253,347.337 339.253,406.337 373,465.5C 375.18,478.622 370.013,487.122 357.5,491C 289.167,491.667 220.833,491.667 152.5,491C 140.574,486.659 135.741,478.159 138,465.5C 171.95,405.093 206.783,345.26 242.5,286C 245.099,284.205 247.766,282.705 250.5,281.5 Z"/></g>
<g><path style="opacity:1" fill="#6965f7" d="M 49.5,297.5 C 74.5022,297.333 99.5022,297.5 124.5,298C 131.11,300.208 133.276,304.708 131,311.5C 129.74,314.428 127.573,316.261 124.5,317C 99.8333,317.667 75.1667,317.667 50.5,317C 41.6623,310.966 41.329,304.466 49.5,297.5 Z"/></g>
<g><path style="opacity:1" fill="#fffefe" d="M 251.5,317.5 C 257.343,316.675 261.843,318.675 265,323.5C 265.667,354.167 265.667,384.833 265,415.5C 262.328,422.501 257.495,424.668 250.5,422C 248.19,420.363 246.69,418.196 246,415.5C 245.333,384.833 245.333,354.167 246,323.5C 247.36,320.977 249.193,318.977 251.5,317.5 Z"/></g>
<g><path style="opacity:1" fill="#6965f7" d="M 149.5,342.5 C 151.168,344.34 152.668,346.34 154,348.5C 154.19,358.135 149.356,362.468 139.5,361.5C 109.831,361.667 80.1648,361.5 50.5,361C 41.1667,354.667 41.1667,348.333 50.5,342C 83.5295,341.188 116.529,341.355 149.5,342.5 Z"/></g>
<g><path style="opacity:1" fill="#fffaf9" d="M 251.5,447.5 C 261.513,446.348 266.013,450.681 265,460.5C 258.667,469.833 252.333,469.833 246,460.5C 244.571,454.7 246.404,450.367 251.5,447.5 Z"/></g>
</svg>
