<?xml version="1.0" encoding="UTF-8"?>
<!DOCTYPE svg PUBLIC "-//W3C//DTD SVG 1.1//EN" "http://www.w3.org/Graphics/SVG/1.1/DTD/svg11.dtd">
<svg xmlns="http://www.w3.org/2000/svg" version="1.1" width="512px" height="512px" style="shape-rendering:geometricPrecision; text-rendering:geometricPrecision; image-rendering:optimizeQuality; fill-rule:evenodd; clip-rule:evenodd" xmlns:xlink="http://www.w3.org/1999/xlink">
<g><path style="opacity:0.991" fill="#072a75" d="M 65.5,-0.5 C 206.833,-0.5 348.167,-0.5 489.5,-0.5C 500.5,3.16667 507.833,10.5 511.5,21.5C 511.5,148.5 511.5,275.5 511.5,402.5C 507.378,415.115 498.711,422.615 485.5,425C 371.5,425.333 257.5,425.667 143.5,426C 118.167,451.333 92.8333,476.667 67.5,502C 61.8497,505.99 55.8497,509.157 49.5,511.5C 43.1667,511.5 36.8333,511.5 30.5,511.5C 14.5,506.833 4.16667,496.5 -0.5,480.5C -0.5,474.167 -0.5,467.833 -0.5,461.5C 1.8433,455.15 5.00997,449.15 9,443.5C 21.1667,431.333 33.3333,419.167 45.5,407C 44.1367,405.055 43.3034,402.888 43,400.5C 42.3333,275.167 42.3333,149.833 43,24.5C 45.8243,11.8475 53.3243,3.51421 65.5,-0.5 Z"/></g>
<g><path style="opacity:1" fill="#add553" d="M 69.5,19.5 C 78.8333,19.5 88.1667,19.5 97.5,19.5C 97.5,30.8333 97.5,42.1667 97.5,53.5C 85.8333,53.5 74.1667,53.5 62.5,53.5C 62.3336,44.8269 62.5002,36.1603 63,27.5C 64.3046,24.0386 66.4713,21.372 69.5,19.5 Z"/></g>
<g><path style="opacity:1" fill="#fcca50" d="M 117.5,19.5 C 128.833,19.5 140.167,19.5 151.5,19.5C 151.5,30.8333 151.5,42.1667 151.5,53.5C 140.167,53.5 128.833,53.5 117.5,53.5C 117.5,42.1667 117.5,30.8333 117.5,19.5 Z"/></g>
<g><path style="opacity:1" fill="#fc604f" d="M 171.5,19.5 C 182.833,19.5 194.167,19.5 205.5,19.5C 205.5,30.8333 205.5,42.1667 205.5,53.5C 194.167,53.5 182.833,53.5 171.5,53.5C 171.5,42.1667 171.5,30.8333 171.5,19.5 Z"/></g>
<g><path style="opacity:1" fill="#d1dbfc" d="M 225.5,19.5 C 311.501,19.3333 397.501,19.5 483.5,20C 487.02,20.504 489.52,22.3374 491,25.5C 491.5,34.8274 491.666,44.1607 491.5,53.5C 402.833,53.5 314.167,53.5 225.5,53.5C 225.5,42.1667 225.5,30.8333 225.5,19.5 Z"/></g>
<g><path style="opacity:1" fill="#fdfdfe" d="M 482.5,404.5 C 416.5,404.5 350.5,404.5 284.5,404.5C 304.255,400.467 322.922,393.3 340.5,383C 346.446,379.538 351.78,375.371 356.5,370.5C 357.167,370.5 357.833,370.5 358.5,370.5C 391.5,370.5 424.5,370.5 457.5,370.5C 457.5,348.833 457.5,327.167 457.5,305.5C 439.5,305.5 421.5,305.5 403.5,305.5C 408.8,291.336 411.8,276.669 412.5,261.5C 427.5,261.5 442.5,261.5 457.5,261.5C 457.5,239.833 457.5,218.167 457.5,196.5C 439.5,196.5 421.5,196.5 403.5,196.5C 403.167,196.5 402.833,196.5 402.5,196.5C 398.193,184.384 392.193,173.217 384.5,163C 409.67,162.832 434.67,162.332 459.5,161.5C 467.27,158.281 469.104,152.947 465,145.5C 464.097,144.299 462.931,143.465 461.5,143C 434.167,142.333 406.833,142.333 379.5,143C 376.979,144.558 375.312,146.725 374.5,149.5C 330.275,104.355 277.275,89.1879 215.5,104C 212.282,104.9 209.282,106.067 206.5,107.5C 205.5,107.5 204.5,107.5 203.5,107.5C 168.167,107.5 132.833,107.5 97.5,107.5C 97.5,122.5 97.5,137.5 97.5,152.5C 111.833,152.5 126.167,152.5 140.5,152.5C 132.854,162.438 126.187,173.104 120.5,184.5C 112.343,185.167 104.343,185.833 96.5,186.5C 87.2493,189.239 85.0826,194.906 90,203.5C 91.4194,204.46 92.9194,205.293 94.5,206C 100.157,206.499 105.824,206.666 111.5,206.5C 98.8284,252.465 104.828,295.798 129.5,336.5C 125.009,333.744 120.676,333.911 116.5,337C 98.6667,354.833 80.8333,372.667 63,390.5C 62.5,284.834 62.3333,179.167 62.5,73.5C 205.5,73.5 348.5,73.5 491.5,73.5C 491.667,181.501 491.5,289.501 491,397.5C 489.795,401.877 486.961,404.21 482.5,404.5 Z"/></g>
<g><path style="opacity:1" fill="#d0dafc" d="M 374.5,149.5 C 373.426,154.635 375.093,158.468 379.5,161C 406.165,161.5 432.831,161.667 459.5,161.5C 434.67,162.332 409.67,162.832 384.5,163C 392.193,173.217 398.193,184.384 402.5,196.5C 389.833,196.5 377.167,196.5 364.5,196.5C 341.403,156.143 306.403,135.143 259.5,133.5C 259.5,124.833 259.5,116.167 259.5,107.5C 241.833,107.5 224.167,107.5 206.5,107.5C 209.282,106.067 212.282,104.9 215.5,104C 277.275,89.1879 330.275,104.355 374.5,149.5 Z"/></g>
<g><path style="opacity:1" fill="#6b67f7" d="M 381.5,97.5 C 407.502,97.3334 433.502,97.5 459.5,98C 467.701,101.373 469.535,106.873 465,114.5C 464.097,115.701 462.931,116.535 461.5,117C 434.167,117.667 406.833,117.667 379.5,117C 374.289,112.836 373.122,107.67 376,101.5C 377.812,100.023 379.645,98.6896 381.5,97.5 Z"/></g>
<g><path style="opacity:1" fill="#6accd1" d="M 203.5,107.5 C 179.328,117.594 158.661,132.594 141.5,152.5C 141.167,152.5 140.833,152.5 140.5,152.5C 126.167,152.5 111.833,152.5 97.5,152.5C 97.5,137.5 97.5,122.5 97.5,107.5C 132.833,107.5 168.167,107.5 203.5,107.5 Z"/></g>
<g><path style="opacity:1" fill="#2ba2cc" d="M 203.5,107.5 C 204.5,107.5 205.5,107.5 206.5,107.5C 224.167,107.5 241.833,107.5 259.5,107.5C 259.5,116.167 259.5,124.833 259.5,133.5C 235.221,133.152 212.888,139.485 192.5,152.5C 175.5,152.5 158.5,152.5 141.5,152.5C 158.661,132.594 179.328,117.594 203.5,107.5 Z"/></g>
<g><path style="opacity:1" fill="#6864f7" d="M 459.5,161.5 C 432.831,161.667 406.165,161.5 379.5,161C 375.093,158.468 373.426,154.635 374.5,149.5C 375.312,146.725 376.979,144.558 379.5,143C 406.833,142.333 434.167,142.333 461.5,143C 462.931,143.465 464.097,144.299 465,145.5C 469.104,152.947 467.27,158.281 459.5,161.5 Z"/></g>
<g><path style="opacity:1" fill="#d0dafc" d="M 140.5,152.5 C 140.833,152.5 141.167,152.5 141.5,152.5C 158.5,152.5 175.5,152.5 192.5,152.5C 179.485,161.848 168.485,173.182 159.5,186.5C 138.5,186.5 117.5,186.5 96.5,186.5C 104.343,185.833 112.343,185.167 120.5,184.5C 126.187,173.104 132.854,162.438 140.5,152.5 Z"/></g>
<g><path style="opacity:1" fill="#92b1f3" d="M 246.5,153.5 C 296.46,150.72 331.627,172.053 352,217.5C 364.633,258.463 356.133,294.297 326.5,325C 295.895,350.565 261.562,357.232 223.5,345C 179.395,324.835 158.229,290.335 160,241.5C 168.611,192.057 197.444,162.724 246.5,153.5 Z"/></g>
<g><path style="opacity:1" fill="#fcfdfe" d="M 254.5,177.5 C 260.07,176.416 264.57,178.083 268,182.5C 268.667,213.833 268.667,245.167 268,276.5C 265.081,282.025 260.581,283.858 254.5,282C 252.083,280.337 250.25,278.171 249,275.5C 248.333,245.167 248.333,214.833 249,184.5C 250.371,181.734 252.204,179.401 254.5,177.5 Z"/></g>
<g><path style="opacity:1" fill="#6965f6" d="M 96.5,186.5 C 117.5,186.5 138.5,186.5 159.5,186.5C 155.326,192.846 151.659,199.512 148.5,206.5C 136.167,206.5 123.833,206.5 111.5,206.5C 105.824,206.666 100.157,206.499 94.5,206C 92.9194,205.293 91.4194,204.46 90,203.5C 85.0826,194.906 87.2493,189.239 96.5,186.5 Z"/></g>
<g><path style="opacity:1" fill="#27a1cb" d="M 364.5,196.5 C 377.167,196.5 389.833,196.5 402.5,196.5C 402.833,196.5 403.167,196.5 403.5,196.5C 411.002,217.517 414.002,239.184 412.5,261.5C 400.833,261.5 389.167,261.5 377.5,261.5C 379.188,238.581 374.855,216.915 364.5,196.5 Z"/></g>
<g><path style="opacity:1" fill="#67ccd1" d="M 403.5,196.5 C 421.5,196.5 439.5,196.5 457.5,196.5C 457.5,218.167 457.5,239.833 457.5,261.5C 442.5,261.5 427.5,261.5 412.5,261.5C 414.002,239.184 411.002,217.517 403.5,196.5 Z"/></g>
<g><path style="opacity:1" fill="#d1dbfc" d="M 111.5,206.5 C 123.833,206.5 136.167,206.5 148.5,206.5C 132.745,250.637 139.079,291.304 167.5,328.5C 160.167,336.5 152.5,344.167 144.5,351.5C 139.146,346.812 134.146,341.812 129.5,336.5C 104.828,295.798 98.8284,252.465 111.5,206.5 Z"/></g>
<g><path style="opacity:1" fill="#d1dbfc" d="M 377.5,261.5 C 389.167,261.5 400.833,261.5 412.5,261.5C 411.8,276.669 408.8,291.336 403.5,305.5C 390.833,305.5 378.167,305.5 365.5,305.5C 371.995,291.522 375.995,276.856 377.5,261.5 Z"/></g>
<g><path style="opacity:1" fill="#27a1cb" d="M 365.5,305.5 C 378.167,305.5 390.833,305.5 403.5,305.5C 393.703,330.758 378.703,352.425 358.5,370.5C 357.833,370.5 357.167,370.5 356.5,370.5C 329.833,370.5 303.167,370.5 276.5,370.5C 316.63,363.02 346.297,341.354 365.5,305.5 Z"/></g>
<g><path style="opacity:1" fill="#67ccd1" d="M 403.5,305.5 C 421.5,305.5 439.5,305.5 457.5,305.5C 457.5,327.167 457.5,348.833 457.5,370.5C 424.5,370.5 391.5,370.5 358.5,370.5C 378.703,352.425 393.703,330.758 403.5,305.5 Z"/></g>
<g><path style="opacity:1" fill="#fcfdfe" d="M 254.5,307.5 C 264.823,305.992 269.323,310.325 268,320.5C 265.185,326.169 260.685,328.002 254.5,326C 246.58,319.789 246.58,313.622 254.5,307.5 Z"/></g>
<g><path style="opacity:1" fill="#d1dbfc" d="M 276.5,370.5 C 303.167,370.5 329.833,370.5 356.5,370.5C 351.78,375.371 346.446,379.538 340.5,383C 322.922,393.3 304.255,400.467 284.5,404.5C 266.833,404.5 249.167,404.5 231.5,404.5C 211.215,400.179 192.215,392.512 174.5,381.5C 169.188,376.854 164.188,371.854 159.5,366.5C 166.833,358.5 174.5,350.833 182.5,343.5C 209.888,365.847 241.222,374.847 276.5,370.5 Z"/></g>
<g><path style="opacity:1" fill="#d36a5c" d="M 67.5,472.5 C 58.7023,463.202 49.7023,454.035 40.5,445C 39.552,444.517 38.552,444.351 37.5,444.5C 65.9384,416.562 94.2717,388.395 122.5,360C 123.167,359.333 123.833,359.333 124.5,360C 133.333,368.833 142.167,377.667 151,386.5C 151.667,387.167 151.667,387.833 151,388.5C 122.775,416.557 94.9419,444.557 67.5,472.5 Z"/></g>
<g><path style="opacity:1" fill="#fdfefe" d="M 174.5,381.5 C 192.215,392.512 211.215,400.179 231.5,404.5C 208.994,404.831 186.66,404.497 164.5,403.5C 169.211,399.955 173.045,395.621 176,390.5C 176.793,387.259 176.293,384.259 174.5,381.5 Z"/></g>
<g><path style="opacity:1" fill="#476299" d="M 164.5,403.5 C 186.66,404.497 208.994,404.831 231.5,404.5C 249.167,404.5 266.833,404.5 284.5,404.5C 350.5,404.5 416.5,404.5 482.5,404.5C 376.333,405.832 269.999,405.832 163.5,404.5C 163.624,403.893 163.957,403.56 164.5,403.5 Z"/></g>
<g><path style="opacity:1" fill="#f8c751" d="M 37.5,444.5 C 38.552,444.351 39.552,444.517 40.5,445C 49.7023,454.035 58.7023,463.202 67.5,472.5C 61.5288,480.306 54.1954,486.473 45.5,491C 27.0514,492.551 18.5514,484.051 20,465.5C 24.1636,457.164 29.9969,450.164 37.5,444.5 Z"/></g>
</svg>
