<?xml version="1.0" encoding="UTF-8"?>
<!DOCTYPE svg PUBLIC "-//W3C//DTD SVG 1.1//EN" "http://www.w3.org/Graphics/SVG/1.1/DTD/svg11.dtd">
<svg xmlns="http://www.w3.org/2000/svg" version="1.1" width="512px" height="512px" style="shape-rendering:geometricPrecision; text-rendering:geometricPrecision; image-rendering:optimizeQuality; fill-rule:evenodd; clip-rule:evenodd" xmlns:xlink="http://www.w3.org/1999/xlink">
<g><path style="opacity:0.997" fill="#00f1a5" d="M 219.5,-0.5 C 243.5,-0.5 267.5,-0.5 291.5,-0.5C 296.537,0.28244 301.537,1.28244 306.5,2.5C 305.127,2.34332 303.793,2.50999 302.5,3C 353.505,27.6717 390.671,65.8383 414,117.5C 417.424,125.67 420.257,134.003 422.5,142.5C 403.659,142.17 384.993,142.503 366.5,143.5C 320.95,150.034 292.784,175.701 282,220.5C 280.253,237.299 280.086,253.965 281.5,270.5C 282.494,276.995 286.161,281.162 292.5,283C 313.833,283.667 335.167,283.667 356.5,283C 389.673,278.103 414.006,260.936 429.5,231.5C 427.219,260.489 418.719,287.822 404,313.5C 397.113,325.052 389.446,336.052 381,346.5C 365.96,362.704 351.127,379.037 336.5,395.5C 334.621,394.659 332.621,394.325 330.5,394.5C 314.578,393.516 298.578,393.183 282.5,393.5C 280.856,392.684 279.69,391.35 279,389.5C 278.5,376.504 278.333,363.504 278.5,350.5C 290.505,350.667 302.505,350.5 314.5,350C 318.861,347.774 320.361,344.274 319,339.5C 317.786,337.951 316.286,336.785 314.5,336C 302.505,335.5 290.505,335.333 278.5,335.5C 280.732,317.579 273.066,307.245 255.5,304.5C 251.421,304.434 247.755,305.434 244.5,307.5C 234.544,314.096 230.544,323.43 232.5,335.5C 220.495,335.333 208.495,335.5 196.5,336C 190.16,340.084 189.827,344.75 195.5,350C 207.829,350.5 220.162,350.667 232.5,350.5C 232.5,393.5 232.5,436.5 232.5,479.5C 232.334,486.508 232.5,493.508 233,500.5C 234.978,504.638 237.811,507.971 241.5,510.5C 227.098,507.798 214.431,501.632 203.5,492C 158.631,443.466 114.131,394.633 70,345.5C 24.6184,283.489 13.9518,215.823 38,142.5C 63.2405,75.5925 109.74,30.7592 177.5,8C 191.446,4.18065 205.446,1.34732 219.5,-0.5 Z"/></g>
<g><path style="opacity:1" fill="#05e29c" d="M 306.5,2.5 C 384.649,17.1435 439.149,61.1435 470,134.5C 497.167,208.162 488.501,277.162 444,341.5C 427.034,361.633 409.534,381.299 391.5,400.5C 388.157,399.776 384.824,398.943 381.5,398C 375.607,396.938 370.274,398.271 365.5,402C 362.964,404.705 360.297,407.205 357.5,409.5C 353.43,406.94 349.764,403.773 346.5,400C 343.264,398.214 339.93,396.714 336.5,395.5C 351.127,379.037 365.96,362.704 381,346.5C 389.446,336.052 397.113,325.052 404,313.5C 418.719,287.822 427.219,260.489 429.5,231.5C 433.618,223.646 436.452,215.312 438,206.5C 439.526,189.196 439.86,171.862 439,154.5C 437.567,149.402 434.4,145.902 429.5,144C 421.173,143.5 412.84,143.334 404.5,143.5C 391.833,143.5 379.167,143.5 366.5,143.5C 384.993,142.503 403.659,142.17 422.5,142.5C 420.257,134.003 417.424,125.67 414,117.5C 390.671,65.8383 353.505,27.6717 302.5,3C 303.793,2.50999 305.127,2.34332 306.5,2.5 Z"/></g>
<g><path style="opacity:1" fill="#3d5959" d="M 229.5,270.5 C 229.5,263.167 229.5,255.833 229.5,248.5C 183.997,248.168 138.664,248.501 93.5,249.5C 81.6115,235.044 74.4448,218.377 72,199.5C 71.3333,184.5 71.3333,169.5 72,154.5C 74.1145,150.052 77.2811,146.552 81.5,144C 104.5,143.333 127.5,143.333 150.5,144C 195.666,153.5 222.166,181 230,226.5C 230.828,241.339 230.661,256.006 229.5,270.5 Z"/></g>
<g><path style="opacity:1" fill="#3d5959" d="M 366.5,143.5 C 379.167,143.5 391.833,143.5 404.5,143.5C 404.908,160.209 404.408,176.876 403,193.5C 395.631,222.869 377.131,240.702 347.5,247C 325.535,248.42 303.535,248.92 281.5,248.5C 281.5,255.833 281.5,263.167 281.5,270.5C 280.086,253.965 280.253,237.299 282,220.5C 292.784,175.701 320.95,150.034 366.5,143.5 Z"/></g>
<g><path style="opacity:1" fill="#374949" d="M 404.5,143.5 C 412.84,143.334 421.173,143.5 429.5,144C 434.4,145.902 437.567,149.402 439,154.5C 439.86,171.862 439.526,189.196 438,206.5C 436.452,215.312 433.618,223.646 429.5,231.5C 414.006,260.936 389.673,278.103 356.5,283C 335.167,283.667 313.833,283.667 292.5,283C 286.161,281.162 282.494,276.995 281.5,270.5C 281.5,263.167 281.5,255.833 281.5,248.5C 303.535,248.92 325.535,248.42 347.5,247C 377.131,240.702 395.631,222.869 403,193.5C 404.408,176.876 404.908,160.209 404.5,143.5 Z"/></g>
<g><path style="opacity:1" fill="#374949" d="M 229.5,270.5 C 228.506,276.995 224.839,281.162 218.5,283C 196.833,283.667 175.167,283.667 153.5,283C 129.131,279.324 109.131,268.157 93.5,249.5C 138.664,248.501 183.997,248.168 229.5,248.5C 229.5,255.833 229.5,263.167 229.5,270.5 Z"/></g>
<g><path style="opacity:1" fill="#6cf5c2" d="M 278.5,335.5 C 278.5,340.5 278.5,345.5 278.5,350.5C 278.333,363.504 278.5,376.504 279,389.5C 279.69,391.35 280.856,392.684 282.5,393.5C 270.464,396.562 261.964,392.562 257,381.5C 256.667,361.167 256.333,340.833 256,320.5C 253.73,314.733 249.896,310.399 244.5,307.5C 247.755,305.434 251.421,304.434 255.5,304.5C 273.066,307.245 280.732,317.579 278.5,335.5 Z"/></g>
<g><path style="opacity:1" fill="#9bf7d1" d="M 244.5,307.5 C 249.896,310.399 253.73,314.733 256,320.5C 256.333,340.833 256.667,361.167 257,381.5C 261.964,392.562 270.464,396.562 282.5,393.5C 298.578,393.183 314.578,393.516 330.5,394.5C 326.561,417.8 322.728,441.133 319,464.5C 316.837,472.497 311.67,477.163 303.5,478.5C 280.167,478.5 256.833,478.5 233.5,478.5C 233.832,435.663 233.499,392.997 232.5,350.5C 232.5,345.5 232.5,340.5 232.5,335.5C 230.544,323.43 234.544,314.096 244.5,307.5 Z"/></g>
<g><path style="opacity:1" fill="#3d5a59" d="M 232.5,335.5 C 232.5,340.5 232.5,345.5 232.5,350.5C 220.162,350.667 207.829,350.5 195.5,350C 189.827,344.75 190.16,340.084 196.5,336C 208.495,335.5 220.495,335.333 232.5,335.5 Z"/></g>
<g><path style="opacity:1" fill="#3d5a59" d="M 278.5,335.5 C 290.505,335.333 302.505,335.5 314.5,336C 316.286,336.785 317.786,337.951 319,339.5C 320.361,344.274 318.861,347.774 314.5,350C 302.505,350.5 290.505,350.667 278.5,350.5C 278.5,345.5 278.5,340.5 278.5,335.5 Z"/></g>
<g><path style="opacity:1" fill="#83f6ca" d="M 232.5,350.5 C 233.499,392.997 233.832,435.663 233.5,478.5C 256.833,478.5 280.167,478.5 303.5,478.5C 280.006,479.498 256.339,479.831 232.5,479.5C 232.5,436.5 232.5,393.5 232.5,350.5 Z"/></g>
<g><path style="opacity:1" fill="#6cf5c2" d="M 330.5,394.5 C 332.621,394.325 334.621,394.659 336.5,395.5C 339.93,396.714 343.264,398.214 346.5,400C 349.764,403.773 353.43,406.94 357.5,409.5C 357.389,410.117 357.056,410.617 356.5,411C 360.521,417.062 362.521,423.729 362.5,431C 360.105,446.146 357.771,461.313 355.5,476.5C 355.217,493.735 347.217,505.402 331.5,511.5C 301.833,511.5 272.167,511.5 242.5,511.5C 242.5,510.833 242.167,510.5 241.5,510.5C 237.811,507.971 234.978,504.638 233,500.5C 232.5,493.508 232.334,486.508 232.5,479.5C 256.339,479.831 280.006,479.498 303.5,478.5C 311.67,477.163 316.837,472.497 319,464.5C 322.728,441.133 326.561,417.8 330.5,394.5 Z"/></g>
<g><path style="opacity:0.995" fill="#9bf7d1" d="M 391.5,400.5 C 402.955,409.943 405.121,421.277 398,434.5C 383.965,448.702 369.799,462.702 355.5,476.5C 357.771,461.313 360.105,446.146 362.5,431C 362.521,423.729 360.521,417.062 356.5,411C 357.056,410.617 357.389,410.117 357.5,409.5C 360.297,407.205 362.964,404.705 365.5,402C 370.274,398.271 375.607,396.938 381.5,398C 384.824,398.943 388.157,399.776 391.5,400.5 Z"/></g>
</svg>
