<?xml version="1.0" encoding="UTF-8"?>
<!DOCTYPE svg PUBLIC "-//W3C//DTD SVG 1.1//EN" "http://www.w3.org/Graphics/SVG/1.1/DTD/svg11.dtd">
<svg xmlns="http://www.w3.org/2000/svg" version="1.1" width="512px" height="512px" style="shape-rendering:geometricPrecision; text-rendering:geometricPrecision; image-rendering:optimizeQuality; fill-rule:evenodd; clip-rule:evenodd" xmlns:xlink="http://www.w3.org/1999/xlink">
<g><path style="opacity:0.986" fill="#eabea3" d="M 67.5,43.5 C 53.9354,66.9743 46.9354,92.3077 46.5,119.5C 23.7076,88.3023 10.8743,53.3023 8,14.5C 10.7601,8.70321 15.2601,6.53654 21.5,8C 29.1284,13.9596 36.4618,20.2929 43.5,27C 51.3923,32.7696 59.3923,38.2696 67.5,43.5 Z"/></g>
<g><path style="opacity:0.985" fill="#eabea3" d="M 463.5,121.5 C 464.491,93.4982 457.824,67.4982 443.5,43.5C 451.608,38.2696 459.608,32.7696 467.5,27C 474.538,20.2929 481.872,13.9596 489.5,8C 495.74,6.53654 500.24,8.70321 503,14.5C 499.891,54.0199 486.725,89.6866 463.5,121.5 Z"/></g>
<g><path style="opacity:0.995" fill="#f8d1b5" d="M 67.5,43.5 C 85.8742,53.5151 105.207,61.1818 125.5,66.5C 110.71,77.4103 102.71,92.077 101.5,110.5C 103.328,127.789 104.328,145.123 104.5,162.5C 80.4222,154.471 61.0889,140.138 46.5,119.5C 46.9354,92.3077 53.9354,66.9743 67.5,43.5 Z"/></g>
<g><path style="opacity:0.995" fill="#f8d2b5" d="M 443.5,43.5 C 457.824,67.4982 464.491,93.4982 463.5,121.5C 448.688,140.977 429.688,154.644 406.5,162.5C 406.349,145.1 407.349,127.766 409.5,110.5C 408.27,92.0324 400.27,77.3658 385.5,66.5C 405.793,61.1818 425.126,53.5151 443.5,43.5 Z"/></g>
<g><path style="opacity:0.994" fill="#5acba6" d="M 385.5,66.5 C 400.27,77.3658 408.27,92.0324 409.5,110.5C 407.349,127.766 406.349,145.1 406.5,162.5C 405.412,174.476 404.412,186.476 403.5,198.5C 401.333,228.159 399.167,257.826 397,287.5C 395.233,303.91 393.066,320.244 390.5,336.5C 382.219,392.317 364.719,444.983 338,494.5C 322.429,507.21 307.762,506.21 294,491.5C 293,489.5 292,487.5 291,485.5C 289.973,466.522 288.973,447.522 288,428.5C 285.773,423.94 282.273,420.774 277.5,419C 262.833,418.333 248.167,418.333 233.5,419C 227.447,421.606 223.613,426.106 222,432.5C 221.667,449.167 221.333,465.833 221,482.5C 214.598,499.619 202.432,506.119 184.5,502C 177.457,499.621 172.29,495.121 169,488.5C 145.108,440.322 128.941,389.655 120.5,336.5C 118.012,321.223 115.845,305.89 114,290.5C 112.093,259.756 109.927,229.09 107.5,198.5C 106.588,186.476 105.588,174.476 104.5,162.5C 104.328,145.123 103.328,127.789 101.5,110.5C 102.71,92.077 110.71,77.4103 125.5,66.5C 132.519,62.105 140.186,59.605 148.5,59C 219.833,58.3333 291.167,58.3333 362.5,59C 370.814,59.605 378.481,62.105 385.5,66.5 Z"/></g>
<g><path style="opacity:1" fill="#fdfefe" d="M 242.5,93.5 C 283.344,90.6639 313.511,106.997 333,142.5C 346.144,174.631 342.478,204.631 322,232.5C 294.735,262.251 261.902,270.751 223.5,258C 184.376,239.16 166.876,207.993 171,164.5C 180.091,125.909 203.924,102.242 242.5,93.5 Z"/></g>
<g><path style="opacity:1" fill="#3979c6" d="M 244.5,119.5 C 282.495,116.683 305.995,133.683 315,170.5C 316.73,201.22 303.563,222.72 275.5,235C 244.516,243.564 220.35,234.397 203,207.5C 188.48,174.405 195.98,147.572 225.5,127C 231.604,123.583 237.937,121.083 244.5,119.5 Z"/></g>
<g><path style="opacity:1" fill="#2c4359" d="M 267.5,137.5 C 252.693,148.873 251.693,161.373 264.5,175C 277.804,181.509 288.47,178.676 296.5,166.5C 300.583,184.327 295.917,199.494 282.5,212C 264.498,224.606 246.498,224.606 228.5,212C 207.988,190.887 207.322,169.22 226.5,147C 238.467,136.807 252.133,133.64 267.5,137.5 Z"/></g>
<g><path style="opacity:1" fill="#fcfcfd" d="M 296.5,166.5 C 288.47,178.676 277.804,181.509 264.5,175C 251.693,161.373 252.693,148.873 267.5,137.5C 282.186,133.594 292.353,138.594 298,152.5C 298.651,157.293 298.151,161.96 296.5,166.5 Z"/></g>
<g><path style="opacity:0.995" fill="#4ab591" d="M 107.5,198.5 C 109.927,229.09 112.093,259.756 114,290.5C 115.845,305.89 118.012,321.223 120.5,336.5C 108.578,348.899 94.2447,352.732 77.5,348C 56.8832,339.35 48.0499,323.85 51,301.5C 62.0965,262.618 80.9298,228.285 107.5,198.5 Z"/></g>
<g><path style="opacity:0.994" fill="#4ab591" d="M 403.5,198.5 C 428.808,227.401 447.308,260.401 459,297.5C 464.398,321.538 455.898,338.372 433.5,348C 416.842,352.421 402.509,348.587 390.5,336.5C 393.066,320.244 395.233,303.91 397,287.5C 399.167,257.826 401.333,228.159 403.5,198.5 Z"/></g>
<g><path style="opacity:1" fill="#427c67" d="M 229.5,295.5 C 224.924,328.081 238.591,339.915 270.5,331C 276.27,328.305 279.77,323.805 281,317.5C 281.5,310.174 281.666,302.841 281.5,295.5C 291.645,293.619 301.645,290.786 311.5,287C 322.453,282.27 333.286,277.437 344,272.5C 354.7,273.901 359.034,279.901 357,290.5C 339.266,337.288 305.432,362.622 255.5,366.5C 208.387,363.024 175.22,339.691 156,296.5C 151.873,288.574 152.706,281.407 158.5,275C 162.976,272.123 167.643,271.79 172.5,274C 190.226,284.529 209.226,291.696 229.5,295.5 Z"/></g>
<g><path style="opacity:1" fill="#fafcfb" d="M 229.5,295.5 C 246.819,298.099 264.153,298.099 281.5,295.5C 281.666,302.841 281.5,310.174 281,317.5C 279.77,323.805 276.27,328.305 270.5,331C 238.591,339.915 224.924,328.081 229.5,295.5 Z"/></g>
</svg>
